<svg width="318" height="53" viewBox="0 0 318 53" fill="none" xmlns="http://www.w3.org/2000/svg">
<mask id="path-1-outside-1_306_61" maskUnits="userSpaceOnUse" x="-3" y="-3" width="324" height="59" fill="black">
<rect fill="white" x="-3" y="-3" width="324" height="59"/>
<path d="M20.154 41.53C15.8787 41.53 12.31 40.7173 9.448 39.092C6.586 37.4667 4.43067 35.2053 2.982 32.308C1.56867 29.3753 0.862 25.948 0.862 22.026C0.862 18.21 1.58633 14.8533 3.035 11.956C4.48367 9.02333 6.639 6.74433 9.501 5.119C12.363 3.45833 15.8963 2.628 20.101 2.628C23.0337 2.628 25.454 2.91067 27.362 3.476C29.3053 4.04133 30.754 4.801 31.708 5.755C32.6973 6.709 33.192 7.769 33.192 8.935C33.192 10.3837 32.5207 11.6203 31.178 12.645C29.8707 13.6697 27.839 14.182 25.083 14.182C25.083 12.9807 24.9063 11.797 24.553 10.631C24.235 9.42966 23.6697 8.44033 22.857 7.663C22.0443 6.85033 20.9313 6.444 19.518 6.444C17.61 6.444 16.1083 7.06233 15.013 8.299C13.9177 9.50033 13.1403 11.267 12.681 13.599C12.2217 15.8957 11.992 18.7047 11.992 22.026C11.992 25.5947 12.31 28.4743 12.946 30.665C13.582 32.8203 14.6243 34.375 16.073 35.329C17.557 36.283 19.518 36.76 21.956 36.76C23.864 36.76 25.4717 36.4773 26.779 35.912C28.1217 35.3113 29.2523 34.587 30.171 33.739C31.0897 32.891 31.8493 32.0783 32.45 31.301C32.6973 31.5483 32.8917 31.9193 33.033 32.414C33.1743 32.9087 33.245 33.3503 33.245 33.739C33.245 34.5517 33.0507 35.4173 32.662 36.336C32.3087 37.2193 31.655 38.0673 30.701 38.88C29.747 39.6573 28.4043 40.2933 26.673 40.788C24.977 41.2827 22.804 41.53 20.154 41.53ZM36.5844 41V37.767H37.1674C37.8387 37.767 38.4217 37.661 38.9164 37.449C39.4111 37.2017 39.7997 36.813 40.0824 36.283C40.3651 35.7177 40.5064 34.9757 40.5064 34.057V6.921C40.5064 6.03767 40.2767 5.40166 39.8174 5.013C39.3934 4.589 38.9164 4.30633 38.3864 4.165C37.8564 4.02366 37.4501 3.953 37.1674 3.953H36.5844V0.719997H50.8414V34.057C50.8414 34.9757 50.9827 35.7177 51.2654 36.283C51.5481 36.813 51.9367 37.2017 52.4314 37.449C52.9614 37.661 53.5444 37.767 54.1804 37.767H54.7634V41H36.5844ZM72.6675 41.53C68.1095 41.53 64.5231 40.2933 61.9085 37.82C59.2938 35.3467 57.9865 31.619 57.9865 26.637C57.9865 21.655 59.2408 17.945 61.7495 15.507C64.2581 13.0337 67.9505 11.797 72.8265 11.797C77.3845 11.797 80.9708 13.0337 83.5855 15.507C86.2001 17.945 87.5075 21.655 87.5075 26.637C87.5075 31.619 86.2531 35.3467 83.7445 37.82C81.2358 40.2933 77.5435 41.53 72.6675 41.53ZM72.7735 37.767C73.8335 37.767 74.6815 37.343 75.3175 36.495C75.9535 35.647 76.3951 34.3927 76.6425 32.732C76.9251 31.0713 77.0665 29.0397 77.0665 26.637C77.0665 24.199 76.9251 22.1673 76.6425 20.542C76.3598 18.8813 75.9005 17.6447 75.2645 16.832C74.6285 16.0193 73.7805 15.613 72.7205 15.613C71.6605 15.613 70.8125 16.0193 70.1765 16.832C69.5758 17.6447 69.1341 18.8813 68.8515 20.542C68.6041 22.1673 68.4805 24.199 68.4805 26.637C68.4805 29.0397 68.6218 31.0713 68.9045 32.732C69.1871 34.3927 69.6288 35.647 70.2295 36.495C70.8655 37.343 71.7135 37.767 72.7735 37.767ZM103.707 41.53C100.986 41.53 98.8132 40.894 97.1878 39.622C95.5978 38.35 94.8028 36.1593 94.8028 33.05V16.62H90.8808V13.493C92.4002 13.493 93.6545 13.2103 94.6438 12.645C95.6332 12.0443 96.3752 11.4613 96.8698 10.896C97.3645 10.4013 97.8238 9.73 98.2478 8.882C98.7072 8.034 99.0605 7.06233 99.3078 5.967H105.138V12.592H111.816V16.62H105.138V31.99C105.138 33.4033 105.332 34.4457 105.721 35.117C106.145 35.7883 106.993 36.124 108.265 36.124C108.972 36.124 109.678 36.071 110.385 35.965C111.092 35.859 111.728 35.7353 112.293 35.594V39.834C111.657 40.152 110.615 40.523 109.166 40.947C107.717 41.3357 105.898 41.53 103.707 41.53ZM114.378 41V37.767H114.59C115.296 37.767 115.915 37.6963 116.445 37.555C117.01 37.3783 117.452 37.0427 117.77 36.548C118.088 36.018 118.247 35.2407 118.247 34.216V6.921C118.247 6.03767 118.017 5.40166 117.558 5.013C117.134 4.589 116.657 4.30633 116.127 4.165C115.597 4.02366 115.19 3.953 114.908 3.953H114.113V0.719997H128.582V8.034C128.582 8.988 128.564 9.942 128.529 10.896C128.529 11.8147 128.511 12.6803 128.476 13.493C128.44 14.3057 128.387 15.03 128.317 15.666H128.741C129.165 14.9947 129.695 14.3763 130.331 13.811C130.967 13.2103 131.797 12.7333 132.822 12.38C133.846 11.9913 135.118 11.797 136.638 11.797C139.57 11.797 141.726 12.592 143.104 14.182C144.517 15.772 145.224 18.3513 145.224 21.92V34.057C145.224 35.117 145.312 35.912 145.489 36.442C145.701 36.972 146.036 37.3253 146.496 37.502C146.955 37.6787 147.573 37.767 148.351 37.767H148.563V41H134.889V24.199C134.889 21.9377 134.659 20.1887 134.2 18.952C133.776 17.7153 132.998 17.097 131.868 17.097C130.914 17.097 130.207 17.5033 129.748 18.316C129.288 19.1287 128.988 20.1533 128.847 21.39C128.705 22.5913 128.635 23.8103 128.635 25.047V34.375C128.635 35.329 128.741 36.0533 128.953 36.548C129.2 37.0073 129.553 37.3253 130.013 37.502C130.507 37.6787 131.143 37.767 131.921 37.767H132.133V41H114.378ZM166.869 41.53C161.852 41.53 158.124 40.258 155.686 37.714C153.284 35.1347 152.082 31.5307 152.082 26.902C152.082 21.92 153.319 18.157 155.792 15.613C158.266 13.069 161.746 11.797 166.233 11.797C170.403 11.797 173.671 12.8923 176.038 15.083C178.441 17.2383 179.642 20.4183 179.642 24.623V27.538H162.47C162.541 29.7287 162.841 31.5307 163.371 32.944C163.901 34.3573 164.679 35.3997 165.703 36.071C166.728 36.7423 168 37.078 169.519 37.078C170.721 37.078 171.745 36.866 172.593 36.442C173.477 36.018 174.219 35.435 174.819 34.693C175.42 33.951 175.915 33.1207 176.303 32.202C176.975 32.3787 177.522 32.6967 177.946 33.156C178.406 33.6153 178.635 34.1983 178.635 34.905C178.635 35.965 178.247 37.0073 177.469 38.032C176.692 39.0567 175.438 39.9047 173.706 40.576C172.01 41.212 169.731 41.53 166.869 41.53ZM169.519 23.775C169.519 22.0083 169.413 20.5243 169.201 19.323C168.989 18.1217 168.654 17.2207 168.194 16.62C167.77 15.984 167.205 15.666 166.498 15.666C165.756 15.666 165.085 15.984 164.484 16.62C163.884 17.2207 163.407 18.1217 163.053 19.323C162.735 20.5243 162.576 22.0083 162.576 23.775H169.519ZM196.637 41.53C193.775 41.53 191.443 41.2827 189.641 40.788C187.839 40.2933 186.443 39.6573 185.454 38.88C184.465 38.1027 183.776 37.29 183.387 36.442C183.034 35.594 182.857 34.8343 182.857 34.163C182.857 32.573 183.193 31.354 183.864 30.506C184.571 29.658 185.454 29.075 186.514 28.757C187.574 28.4037 188.705 28.227 189.906 28.227C189.906 30.6297 190.295 32.5377 191.072 33.951C191.885 35.3643 192.892 36.389 194.093 37.025C195.33 37.6257 196.566 37.926 197.803 37.926C199.676 37.926 201.107 37.396 202.096 36.336C203.121 35.2407 203.633 34.0923 203.633 32.891C203.633 31.7603 203.244 30.7887 202.467 29.976C201.725 29.1633 200.647 28.4037 199.234 27.697C197.856 26.9903 196.213 26.2483 194.305 25.471C192.291 24.6583 190.613 23.8103 189.27 22.927C187.963 22.0083 186.92 21.0543 186.143 20.065C185.366 19.0757 184.818 18.0333 184.5 16.938C184.182 15.8427 184.023 14.712 184.023 13.546C184.023 11.2847 184.641 9.34133 185.878 7.716C187.15 6.09067 188.864 4.83633 191.019 3.953C193.174 3.06966 195.595 2.628 198.28 2.628C201.142 2.628 203.474 2.96366 205.276 3.635C207.113 4.30633 208.456 5.15433 209.304 6.179C210.152 7.16833 210.576 8.21067 210.576 9.306C210.576 10.6133 209.993 11.7263 208.827 12.645C207.696 13.5637 205.718 14.023 202.891 14.023C202.891 12.8217 202.661 11.638 202.202 10.472C201.743 9.27067 201.071 8.28133 200.188 7.504C199.34 6.69133 198.28 6.285 197.008 6.285C196.16 6.285 195.383 6.42633 194.676 6.709C193.969 6.99166 193.404 7.43333 192.98 8.034C192.556 8.59933 192.344 9.359 192.344 10.313C192.344 11.0197 192.574 11.744 193.033 12.486C193.492 13.228 194.393 14.0407 195.736 14.924C197.114 15.772 199.11 16.726 201.725 17.786C204.41 18.846 206.495 19.9943 207.979 21.231C209.498 22.4323 210.558 23.7397 211.159 25.153C211.76 26.531 212.06 28.068 212.06 29.764C212.06 32.0607 211.424 34.0923 210.152 35.859C208.915 37.6257 207.131 39.0213 204.799 40.046C202.502 41.0353 199.782 41.53 196.637 41.53ZM214.788 41V37.767H215C215.706 37.767 216.325 37.6963 216.855 37.555C217.42 37.3783 217.862 37.0427 218.18 36.548C218.498 36.018 218.657 35.2407 218.657 34.216V6.921C218.657 6.03767 218.427 5.40166 217.968 5.013C217.544 4.589 217.067 4.30633 216.537 4.165C216.007 4.02366 215.6 3.953 215.318 3.953H214.523V0.719997H228.992V8.034C228.992 8.988 228.974 9.942 228.939 10.896C228.939 11.8147 228.921 12.6803 228.886 13.493C228.85 14.3057 228.797 15.03 228.727 15.666H229.151C229.575 14.9947 230.105 14.3763 230.741 13.811C231.377 13.2103 232.207 12.7333 233.232 12.38C234.256 11.9913 235.528 11.797 237.048 11.797C239.98 11.797 242.136 12.592 243.514 14.182C244.927 15.772 245.634 18.3513 245.634 21.92V34.057C245.634 35.117 245.722 35.912 245.899 36.442C246.111 36.972 246.446 37.3253 246.906 37.502C247.365 37.6787 247.983 37.767 248.761 37.767H248.973V41H235.299V24.199C235.299 21.9377 235.069 20.1887 234.61 18.952C234.186 17.7153 233.408 17.097 232.278 17.097C231.324 17.097 230.617 17.5033 230.158 18.316C229.698 19.1287 229.398 20.1533 229.257 21.39C229.115 22.5913 229.045 23.8103 229.045 25.047V34.375C229.045 35.329 229.151 36.0533 229.363 36.548C229.61 37.0073 229.963 37.3253 230.423 37.502C230.917 37.6787 231.553 37.767 232.331 37.767H232.543V41H214.788ZM267.173 41.53C262.615 41.53 259.029 40.2933 256.414 37.82C253.8 35.3467 252.492 31.619 252.492 26.637C252.492 21.655 253.747 17.945 256.255 15.507C258.764 13.0337 262.456 11.797 267.332 11.797C271.89 11.797 275.477 13.0337 278.091 15.507C280.706 17.945 282.013 21.655 282.013 26.637C282.013 31.619 280.759 35.3467 278.25 37.82C275.742 40.2933 272.049 41.53 267.173 41.53ZM267.279 37.767C268.339 37.767 269.187 37.343 269.823 36.495C270.459 35.647 270.901 34.3927 271.148 32.732C271.431 31.0713 271.572 29.0397 271.572 26.637C271.572 24.199 271.431 22.1673 271.148 20.542C270.866 18.8813 270.406 17.6447 269.77 16.832C269.134 16.0193 268.286 15.613 267.226 15.613C266.166 15.613 265.318 16.0193 264.682 16.832C264.082 17.6447 263.64 18.8813 263.357 20.542C263.11 22.1673 262.986 24.199 262.986 26.637C262.986 29.0397 263.128 31.0713 263.41 32.732C263.693 34.3927 264.135 35.647 264.735 36.495C265.371 37.343 266.219 37.767 267.279 37.767ZM284.698 52.713V49.48H285.493C285.811 49.48 286.235 49.4093 286.765 49.268C287.295 49.1267 287.772 48.8263 288.196 48.367C288.62 47.9077 288.832 47.2187 288.832 46.3V19.641C288.832 18.5103 288.708 17.68 288.461 17.15C288.249 16.62 287.931 16.2667 287.507 16.09C287.083 15.9133 286.57 15.825 285.97 15.825H285.705V12.592H296.941L298.213 16.249H298.425C299.167 15.0477 300.191 14.0583 301.499 13.281C302.806 12.4683 304.484 12.062 306.534 12.062C310.067 12.062 312.752 13.2633 314.59 15.666C316.462 18.0687 317.399 21.8493 317.399 27.008C317.399 32.1313 316.48 35.859 314.643 38.191C312.805 40.523 310.049 41.689 306.375 41.689C304.643 41.689 303.212 41.4417 302.082 40.947C300.986 40.417 300.05 39.6573 299.273 38.668H298.955C298.99 39.2687 299.025 39.887 299.061 40.523C299.096 41.159 299.114 41.795 299.114 42.431C299.149 43.1023 299.167 43.7913 299.167 44.498V46.088C299.167 47.0773 299.379 47.8017 299.803 48.261C300.227 48.7557 300.704 49.0737 301.234 49.215C301.764 49.3917 302.17 49.48 302.453 49.48H304.361V52.713H284.698ZM303.195 37.396C304.113 37.396 304.855 37.0427 305.421 36.336C305.986 35.594 306.392 34.4633 306.64 32.944C306.922 31.4247 307.064 29.499 307.064 27.167C307.064 24.9057 306.922 22.98 306.64 21.39C306.392 19.8 306.004 18.581 305.474 17.733C304.944 16.885 304.237 16.461 303.354 16.461C302.258 16.461 301.393 16.885 300.757 17.733C300.156 18.581 299.732 19.8 299.485 21.39C299.273 22.9447 299.167 24.8173 299.167 27.008C299.167 29.4107 299.273 31.3893 299.485 32.944C299.732 34.4633 300.138 35.594 300.704 36.336C301.304 37.0427 302.135 37.396 303.195 37.396Z"/>
</mask>
<path d="M20.154 41.53C15.8787 41.53 12.31 40.7173 9.448 39.092C6.586 37.4667 4.43067 35.2053 2.982 32.308C1.56867 29.3753 0.862 25.948 0.862 22.026C0.862 18.21 1.58633 14.8533 3.035 11.956C4.48367 9.02333 6.639 6.74433 9.501 5.119C12.363 3.45833 15.8963 2.628 20.101 2.628C23.0337 2.628 25.454 2.91067 27.362 3.476C29.3053 4.04133 30.754 4.801 31.708 5.755C32.6973 6.709 33.192 7.769 33.192 8.935C33.192 10.3837 32.5207 11.6203 31.178 12.645C29.8707 13.6697 27.839 14.182 25.083 14.182C25.083 12.9807 24.9063 11.797 24.553 10.631C24.235 9.42966 23.6697 8.44033 22.857 7.663C22.0443 6.85033 20.9313 6.444 19.518 6.444C17.61 6.444 16.1083 7.06233 15.013 8.299C13.9177 9.50033 13.1403 11.267 12.681 13.599C12.2217 15.8957 11.992 18.7047 11.992 22.026C11.992 25.5947 12.31 28.4743 12.946 30.665C13.582 32.8203 14.6243 34.375 16.073 35.329C17.557 36.283 19.518 36.76 21.956 36.76C23.864 36.76 25.4717 36.4773 26.779 35.912C28.1217 35.3113 29.2523 34.587 30.171 33.739C31.0897 32.891 31.8493 32.0783 32.45 31.301C32.6973 31.5483 32.8917 31.9193 33.033 32.414C33.1743 32.9087 33.245 33.3503 33.245 33.739C33.245 34.5517 33.0507 35.4173 32.662 36.336C32.3087 37.2193 31.655 38.0673 30.701 38.88C29.747 39.6573 28.4043 40.2933 26.673 40.788C24.977 41.2827 22.804 41.53 20.154 41.53ZM36.5844 41V37.767H37.1674C37.8387 37.767 38.4217 37.661 38.9164 37.449C39.4111 37.2017 39.7997 36.813 40.0824 36.283C40.3651 35.7177 40.5064 34.9757 40.5064 34.057V6.921C40.5064 6.03767 40.2767 5.40166 39.8174 5.013C39.3934 4.589 38.9164 4.30633 38.3864 4.165C37.8564 4.02366 37.4501 3.953 37.1674 3.953H36.5844V0.719997H50.8414V34.057C50.8414 34.9757 50.9827 35.7177 51.2654 36.283C51.5481 36.813 51.9367 37.2017 52.4314 37.449C52.9614 37.661 53.5444 37.767 54.1804 37.767H54.7634V41H36.5844ZM72.6675 41.53C68.1095 41.53 64.5231 40.2933 61.9085 37.82C59.2938 35.3467 57.9865 31.619 57.9865 26.637C57.9865 21.655 59.2408 17.945 61.7495 15.507C64.2581 13.0337 67.9505 11.797 72.8265 11.797C77.3845 11.797 80.9708 13.0337 83.5855 15.507C86.2001 17.945 87.5075 21.655 87.5075 26.637C87.5075 31.619 86.2531 35.3467 83.7445 37.82C81.2358 40.2933 77.5435 41.53 72.6675 41.53ZM72.7735 37.767C73.8335 37.767 74.6815 37.343 75.3175 36.495C75.9535 35.647 76.3951 34.3927 76.6425 32.732C76.9251 31.0713 77.0665 29.0397 77.0665 26.637C77.0665 24.199 76.9251 22.1673 76.6425 20.542C76.3598 18.8813 75.9005 17.6447 75.2645 16.832C74.6285 16.0193 73.7805 15.613 72.7205 15.613C71.6605 15.613 70.8125 16.0193 70.1765 16.832C69.5758 17.6447 69.1341 18.8813 68.8515 20.542C68.6041 22.1673 68.4805 24.199 68.4805 26.637C68.4805 29.0397 68.6218 31.0713 68.9045 32.732C69.1871 34.3927 69.6288 35.647 70.2295 36.495C70.8655 37.343 71.7135 37.767 72.7735 37.767ZM103.707 41.53C100.986 41.53 98.8132 40.894 97.1878 39.622C95.5978 38.35 94.8028 36.1593 94.8028 33.05V16.62H90.8808V13.493C92.4002 13.493 93.6545 13.2103 94.6438 12.645C95.6332 12.0443 96.3752 11.4613 96.8698 10.896C97.3645 10.4013 97.8238 9.73 98.2478 8.882C98.7072 8.034 99.0605 7.06233 99.3078 5.967H105.138V12.592H111.816V16.62H105.138V31.99C105.138 33.4033 105.332 34.4457 105.721 35.117C106.145 35.7883 106.993 36.124 108.265 36.124C108.972 36.124 109.678 36.071 110.385 35.965C111.092 35.859 111.728 35.7353 112.293 35.594V39.834C111.657 40.152 110.615 40.523 109.166 40.947C107.717 41.3357 105.898 41.53 103.707 41.53ZM114.378 41V37.767H114.59C115.296 37.767 115.915 37.6963 116.445 37.555C117.01 37.3783 117.452 37.0427 117.77 36.548C118.088 36.018 118.247 35.2407 118.247 34.216V6.921C118.247 6.03767 118.017 5.40166 117.558 5.013C117.134 4.589 116.657 4.30633 116.127 4.165C115.597 4.02366 115.19 3.953 114.908 3.953H114.113V0.719997H128.582V8.034C128.582 8.988 128.564 9.942 128.529 10.896C128.529 11.8147 128.511 12.6803 128.476 13.493C128.44 14.3057 128.387 15.03 128.317 15.666H128.741C129.165 14.9947 129.695 14.3763 130.331 13.811C130.967 13.2103 131.797 12.7333 132.822 12.38C133.846 11.9913 135.118 11.797 136.638 11.797C139.57 11.797 141.726 12.592 143.104 14.182C144.517 15.772 145.224 18.3513 145.224 21.92V34.057C145.224 35.117 145.312 35.912 145.489 36.442C145.701 36.972 146.036 37.3253 146.496 37.502C146.955 37.6787 147.573 37.767 148.351 37.767H148.563V41H134.889V24.199C134.889 21.9377 134.659 20.1887 134.2 18.952C133.776 17.7153 132.998 17.097 131.868 17.097C130.914 17.097 130.207 17.5033 129.748 18.316C129.288 19.1287 128.988 20.1533 128.847 21.39C128.705 22.5913 128.635 23.8103 128.635 25.047V34.375C128.635 35.329 128.741 36.0533 128.953 36.548C129.2 37.0073 129.553 37.3253 130.013 37.502C130.507 37.6787 131.143 37.767 131.921 37.767H132.133V41H114.378ZM166.869 41.53C161.852 41.53 158.124 40.258 155.686 37.714C153.284 35.1347 152.082 31.5307 152.082 26.902C152.082 21.92 153.319 18.157 155.792 15.613C158.266 13.069 161.746 11.797 166.233 11.797C170.403 11.797 173.671 12.8923 176.038 15.083C178.441 17.2383 179.642 20.4183 179.642 24.623V27.538H162.47C162.541 29.7287 162.841 31.5307 163.371 32.944C163.901 34.3573 164.679 35.3997 165.703 36.071C166.728 36.7423 168 37.078 169.519 37.078C170.721 37.078 171.745 36.866 172.593 36.442C173.477 36.018 174.219 35.435 174.819 34.693C175.42 33.951 175.915 33.1207 176.303 32.202C176.975 32.3787 177.522 32.6967 177.946 33.156C178.406 33.6153 178.635 34.1983 178.635 34.905C178.635 35.965 178.247 37.0073 177.469 38.032C176.692 39.0567 175.438 39.9047 173.706 40.576C172.01 41.212 169.731 41.53 166.869 41.53ZM169.519 23.775C169.519 22.0083 169.413 20.5243 169.201 19.323C168.989 18.1217 168.654 17.2207 168.194 16.62C167.77 15.984 167.205 15.666 166.498 15.666C165.756 15.666 165.085 15.984 164.484 16.62C163.884 17.2207 163.407 18.1217 163.053 19.323C162.735 20.5243 162.576 22.0083 162.576 23.775H169.519ZM196.637 41.53C193.775 41.53 191.443 41.2827 189.641 40.788C187.839 40.2933 186.443 39.6573 185.454 38.88C184.465 38.1027 183.776 37.29 183.387 36.442C183.034 35.594 182.857 34.8343 182.857 34.163C182.857 32.573 183.193 31.354 183.864 30.506C184.571 29.658 185.454 29.075 186.514 28.757C187.574 28.4037 188.705 28.227 189.906 28.227C189.906 30.6297 190.295 32.5377 191.072 33.951C191.885 35.3643 192.892 36.389 194.093 37.025C195.33 37.6257 196.566 37.926 197.803 37.926C199.676 37.926 201.107 37.396 202.096 36.336C203.121 35.2407 203.633 34.0923 203.633 32.891C203.633 31.7603 203.244 30.7887 202.467 29.976C201.725 29.1633 200.647 28.4037 199.234 27.697C197.856 26.9903 196.213 26.2483 194.305 25.471C192.291 24.6583 190.613 23.8103 189.27 22.927C187.963 22.0083 186.92 21.0543 186.143 20.065C185.366 19.0757 184.818 18.0333 184.5 16.938C184.182 15.8427 184.023 14.712 184.023 13.546C184.023 11.2847 184.641 9.34133 185.878 7.716C187.15 6.09067 188.864 4.83633 191.019 3.953C193.174 3.06966 195.595 2.628 198.28 2.628C201.142 2.628 203.474 2.96366 205.276 3.635C207.113 4.30633 208.456 5.15433 209.304 6.179C210.152 7.16833 210.576 8.21067 210.576 9.306C210.576 10.6133 209.993 11.7263 208.827 12.645C207.696 13.5637 205.718 14.023 202.891 14.023C202.891 12.8217 202.661 11.638 202.202 10.472C201.743 9.27067 201.071 8.28133 200.188 7.504C199.34 6.69133 198.28 6.285 197.008 6.285C196.16 6.285 195.383 6.42633 194.676 6.709C193.969 6.99166 193.404 7.43333 192.98 8.034C192.556 8.59933 192.344 9.359 192.344 10.313C192.344 11.0197 192.574 11.744 193.033 12.486C193.492 13.228 194.393 14.0407 195.736 14.924C197.114 15.772 199.11 16.726 201.725 17.786C204.41 18.846 206.495 19.9943 207.979 21.231C209.498 22.4323 210.558 23.7397 211.159 25.153C211.76 26.531 212.06 28.068 212.06 29.764C212.06 32.0607 211.424 34.0923 210.152 35.859C208.915 37.6257 207.131 39.0213 204.799 40.046C202.502 41.0353 199.782 41.53 196.637 41.53ZM214.788 41V37.767H215C215.706 37.767 216.325 37.6963 216.855 37.555C217.42 37.3783 217.862 37.0427 218.18 36.548C218.498 36.018 218.657 35.2407 218.657 34.216V6.921C218.657 6.03767 218.427 5.40166 217.968 5.013C217.544 4.589 217.067 4.30633 216.537 4.165C216.007 4.02366 215.6 3.953 215.318 3.953H214.523V0.719997H228.992V8.034C228.992 8.988 228.974 9.942 228.939 10.896C228.939 11.8147 228.921 12.6803 228.886 13.493C228.85 14.3057 228.797 15.03 228.727 15.666H229.151C229.575 14.9947 230.105 14.3763 230.741 13.811C231.377 13.2103 232.207 12.7333 233.232 12.38C234.256 11.9913 235.528 11.797 237.048 11.797C239.98 11.797 242.136 12.592 243.514 14.182C244.927 15.772 245.634 18.3513 245.634 21.92V34.057C245.634 35.117 245.722 35.912 245.899 36.442C246.111 36.972 246.446 37.3253 246.906 37.502C247.365 37.6787 247.983 37.767 248.761 37.767H248.973V41H235.299V24.199C235.299 21.9377 235.069 20.1887 234.61 18.952C234.186 17.7153 233.408 17.097 232.278 17.097C231.324 17.097 230.617 17.5033 230.158 18.316C229.698 19.1287 229.398 20.1533 229.257 21.39C229.115 22.5913 229.045 23.8103 229.045 25.047V34.375C229.045 35.329 229.151 36.0533 229.363 36.548C229.61 37.0073 229.963 37.3253 230.423 37.502C230.917 37.6787 231.553 37.767 232.331 37.767H232.543V41H214.788ZM267.173 41.53C262.615 41.53 259.029 40.2933 256.414 37.82C253.8 35.3467 252.492 31.619 252.492 26.637C252.492 21.655 253.747 17.945 256.255 15.507C258.764 13.0337 262.456 11.797 267.332 11.797C271.89 11.797 275.477 13.0337 278.091 15.507C280.706 17.945 282.013 21.655 282.013 26.637C282.013 31.619 280.759 35.3467 278.25 37.82C275.742 40.2933 272.049 41.53 267.173 41.53ZM267.279 37.767C268.339 37.767 269.187 37.343 269.823 36.495C270.459 35.647 270.901 34.3927 271.148 32.732C271.431 31.0713 271.572 29.0397 271.572 26.637C271.572 24.199 271.431 22.1673 271.148 20.542C270.866 18.8813 270.406 17.6447 269.77 16.832C269.134 16.0193 268.286 15.613 267.226 15.613C266.166 15.613 265.318 16.0193 264.682 16.832C264.082 17.6447 263.64 18.8813 263.357 20.542C263.11 22.1673 262.986 24.199 262.986 26.637C262.986 29.0397 263.128 31.0713 263.41 32.732C263.693 34.3927 264.135 35.647 264.735 36.495C265.371 37.343 266.219 37.767 267.279 37.767ZM284.698 52.713V49.48H285.493C285.811 49.48 286.235 49.4093 286.765 49.268C287.295 49.1267 287.772 48.8263 288.196 48.367C288.62 47.9077 288.832 47.2187 288.832 46.3V19.641C288.832 18.5103 288.708 17.68 288.461 17.15C288.249 16.62 287.931 16.2667 287.507 16.09C287.083 15.9133 286.57 15.825 285.97 15.825H285.705V12.592H296.941L298.213 16.249H298.425C299.167 15.0477 300.191 14.0583 301.499 13.281C302.806 12.4683 304.484 12.062 306.534 12.062C310.067 12.062 312.752 13.2633 314.59 15.666C316.462 18.0687 317.399 21.8493 317.399 27.008C317.399 32.1313 316.48 35.859 314.643 38.191C312.805 40.523 310.049 41.689 306.375 41.689C304.643 41.689 303.212 41.4417 302.082 40.947C300.986 40.417 300.05 39.6573 299.273 38.668H298.955C298.99 39.2687 299.025 39.887 299.061 40.523C299.096 41.159 299.114 41.795 299.114 42.431C299.149 43.1023 299.167 43.7913 299.167 44.498V46.088C299.167 47.0773 299.379 47.8017 299.803 48.261C300.227 48.7557 300.704 49.0737 301.234 49.215C301.764 49.3917 302.17 49.48 302.453 49.48H304.361V52.713H284.698ZM303.195 37.396C304.113 37.396 304.855 37.0427 305.421 36.336C305.986 35.594 306.392 34.4633 306.64 32.944C306.922 31.4247 307.064 29.499 307.064 27.167C307.064 24.9057 306.922 22.98 306.64 21.39C306.392 19.8 306.004 18.581 305.474 17.733C304.944 16.885 304.237 16.461 303.354 16.461C302.258 16.461 301.393 16.885 300.757 17.733C300.156 18.581 299.732 19.8 299.485 21.39C299.273 22.9447 299.167 24.8173 299.167 27.008C299.167 29.4107 299.273 31.3893 299.485 32.944C299.732 34.4633 300.138 35.594 300.704 36.336C301.304 37.0427 302.135 37.396 303.195 37.396Z" fill="#33A8A8"/>
<path d="M9.448 39.092L7.96653 41.7007L7.96653 41.7007L9.448 39.092ZM2.982 32.308L0.279467 33.6104L0.28895 33.6301L0.298719 33.6496L2.982 32.308ZM3.035 11.956L5.71828 13.2976L5.72152 13.2912L5.72473 13.2847L3.035 11.956ZM9.501 5.119L10.9825 7.72768L10.9946 7.7208L11.0066 7.71381L9.501 5.119ZM27.362 3.476L26.5097 6.35239L26.5169 6.35451L26.524 6.35659L27.362 3.476ZM31.708 5.755L29.5867 7.87632L29.606 7.8956L29.6256 7.91453L31.708 5.755ZM31.178 12.645L29.358 10.2601L29.3426 10.2719L29.3274 10.2838L31.178 12.645ZM25.083 14.182H22.083V17.182H25.083V14.182ZM24.553 10.631L21.6529 11.3987L21.6665 11.4501L21.6819 11.501L24.553 10.631ZM22.857 7.663L20.7357 9.78432L20.7592 9.80789L20.7833 9.83093L22.857 7.663ZM15.013 8.299L17.2299 10.3203L17.2444 10.3043L17.2588 10.2881L15.013 8.299ZM12.681 13.599L15.6228 14.1874L15.6244 14.1788L12.681 13.599ZM12.946 30.665L10.0649 31.5014L10.0687 31.5141L12.946 30.665ZM16.073 35.329L14.423 37.8345L14.4368 37.8436L14.4507 37.8525L16.073 35.329ZM26.779 35.912L27.9697 38.6656L27.987 38.6581L28.0041 38.6505L26.779 35.912ZM30.171 33.739L32.2058 35.9434L32.2058 35.9434L30.171 33.739ZM32.45 31.301L34.5713 29.1797L32.1607 26.769L30.0761 29.4667L32.45 31.301ZM33.033 32.414L30.1484 33.2382L30.1484 33.2382L33.033 32.414ZM32.662 36.336L29.8991 35.1671L29.8876 35.1943L29.8766 35.2218L32.662 36.336ZM30.701 38.88L32.596 41.2057L32.6214 41.185L32.6464 41.1637L30.701 38.88ZM26.673 40.788L25.8488 37.9034L25.8409 37.9057L25.833 37.908L26.673 40.788ZM20.154 38.53C16.2468 38.53 13.2244 37.7866 10.9295 36.4833L7.96653 41.7007C11.3956 43.6481 15.5106 44.53 20.154 44.53V38.53ZM10.9295 36.4833C8.57602 35.1468 6.84335 33.3225 5.66528 30.9664L0.298719 33.6496C2.01799 37.0882 4.59598 39.7865 7.96653 41.7007L10.9295 36.4833ZM5.68453 31.0056C4.50301 28.5539 3.862 25.5881 3.862 22.026H-2.138C-2.138 26.3079 -1.36568 30.1968 0.279467 33.6104L5.68453 31.0056ZM3.862 22.026C3.862 18.5932 4.51191 15.7104 5.71828 13.2976L0.351719 10.6144C-1.33924 13.9963 -2.138 17.8268 -2.138 22.026H3.862ZM5.72473 13.2847C6.90593 10.8934 8.63869 9.05872 10.9825 7.72768L8.01953 2.51031C4.63931 4.42994 2.0614 7.15321 0.345269 10.6273L5.72473 13.2847ZM11.0066 7.71381C13.3032 6.38124 16.2844 5.628 20.101 5.628V-0.372002C15.5083 -0.372002 11.4228 0.535422 7.99537 2.52418L11.0066 7.71381ZM20.101 5.628C22.8681 5.628 24.9757 5.89786 26.5097 6.35239L28.2143 0.599606C25.9323 -0.0765303 23.1993 -0.372002 20.101 -0.372002V5.628ZM26.524 6.35659C28.206 6.8459 29.1245 7.41409 29.5867 7.87632L33.8293 3.63368C32.3836 2.18791 30.4046 1.23676 28.2 0.595413L26.524 6.35659ZM29.6256 7.91453C30.142 8.4125 30.192 8.72874 30.192 8.935H36.192C36.192 6.80926 35.2527 5.0055 33.7904 3.59547L29.6256 7.91453ZM30.192 8.935C30.192 9.28569 30.0965 9.69653 29.358 10.2601L32.998 15.0299C34.9448 13.5441 36.192 11.4816 36.192 8.935H30.192ZM29.3274 10.2838C28.7969 10.6996 27.5735 11.182 25.083 11.182V17.182C28.1045 17.182 30.9444 16.6398 33.0286 15.0062L29.3274 10.2838ZM28.083 14.182C28.083 12.6817 27.8617 11.205 27.4241 9.76098L21.6819 11.501C21.951 12.389 22.083 13.2796 22.083 14.182H28.083ZM27.4531 9.86332C27.0091 8.1859 26.1836 6.69352 24.9307 5.49507L20.7833 9.83093C21.1557 10.1871 21.4609 10.6734 21.6529 11.3987L27.4531 9.86332ZM24.9783 5.54168C23.4792 4.04258 21.5329 3.444 19.518 3.444V9.444C20.3298 9.444 20.6094 9.65808 20.7357 9.78432L24.9783 5.54168ZM19.518 3.444C16.8982 3.444 14.5227 4.32794 12.7672 6.30989L17.2588 10.2881C17.694 9.79672 18.3218 9.444 19.518 9.444V3.444ZM12.7961 6.27774C11.1987 8.02975 10.2569 10.3827 9.73756 13.0192L15.6244 14.1788C16.0238 12.1513 16.6366 10.9709 17.2299 10.3203L12.7961 6.27774ZM9.73926 13.0107C9.22885 15.5627 8.992 18.5819 8.992 22.026H14.992C14.992 18.8275 15.2145 16.2287 15.6227 14.1873L9.73926 13.0107ZM8.992 22.026C8.992 25.7374 9.31868 28.9309 10.065 31.5014L15.827 29.8286C15.3013 28.0177 14.992 25.452 14.992 22.026H8.992ZM10.0687 31.5141C10.8449 34.1446 12.2258 36.3876 14.423 37.8345L17.723 32.8235C17.0229 32.3624 16.3191 31.4961 15.8233 29.8159L10.0687 31.5141ZM14.4507 37.8525C16.5704 39.2152 19.1546 39.76 21.956 39.76V33.76C19.8814 33.76 18.5436 33.3508 17.6953 32.8055L14.4507 37.8525ZM21.956 39.76C24.142 39.76 26.1821 39.4386 27.9697 38.6656L25.5883 33.1584C24.7613 33.5161 23.586 33.76 21.956 33.76V39.76ZM28.0041 38.6505C29.5927 37.9398 31.0101 37.0472 32.2058 35.9434L28.1362 31.5346C27.4946 32.1268 26.6506 32.6829 25.5539 33.1735L28.0041 38.6505ZM32.2058 35.9434C33.2162 35.0108 34.0975 34.0754 34.8239 33.1353L30.0761 29.4667C29.6012 30.0813 28.9632 30.7712 28.1362 31.5346L32.2058 35.9434ZM30.3287 33.4223C30.2003 33.2939 30.1405 33.1888 30.1238 33.1568C30.1075 33.1257 30.1217 33.1447 30.1484 33.2382L35.9176 31.5898C35.6975 30.8195 35.3095 29.9179 34.5713 29.1797L30.3287 33.4223ZM30.1484 33.2382C30.2363 33.5458 30.245 33.7024 30.245 33.739H36.245C36.245 32.9983 36.1123 32.2715 35.9176 31.5898L30.1484 33.2382ZM30.245 33.739C30.245 34.0699 30.1659 34.5364 29.8991 35.1671L35.4249 37.5049C35.9354 36.2982 36.245 35.0334 36.245 33.739H30.245ZM29.8766 35.2218C29.7524 35.5323 29.4522 36.0029 28.7556 36.5963L32.6464 41.1637C33.8578 40.1318 34.865 38.9063 35.4474 37.4502L29.8766 35.2218ZM28.806 36.5543C28.2781 36.9844 27.3549 37.4731 25.8488 37.9034L27.4972 43.6726C29.4538 43.1135 31.2159 42.3303 32.596 41.2057L28.806 36.5543ZM25.833 37.908C24.5096 38.294 22.6467 38.53 20.154 38.53V44.53C22.9613 44.53 25.4444 44.2713 27.513 43.668L25.833 37.908ZM36.5844 41H33.5844V44H36.5844V41ZM36.5844 37.767V34.767H33.5844V37.767H36.5844ZM38.9164 37.449L40.0982 40.2064L40.1792 40.1717L40.2581 40.1323L38.9164 37.449ZM40.0824 36.283L42.7295 37.6948L42.748 37.6599L42.7657 37.6246L40.0824 36.283ZM39.8174 5.013L37.6961 7.13432L37.7843 7.22255L37.8796 7.30316L39.8174 5.013ZM38.3864 4.165L37.6134 7.0637L37.6134 7.0637L38.3864 4.165ZM36.5844 3.953H33.5844V6.953H36.5844V3.953ZM36.5844 0.719997V-2.28H33.5844V0.719997H36.5844ZM50.8414 0.719997H53.8414V-2.28H50.8414V0.719997ZM51.2654 36.283L48.5821 37.6246L48.5998 37.6599L48.6184 37.6948L51.2654 36.283ZM52.4314 37.449L51.0898 40.1323L51.2014 40.1881L51.3172 40.2344L52.4314 37.449ZM54.7634 37.767H57.7634V34.767H54.7634V37.767ZM54.7634 41V44H57.7634V41H54.7634ZM39.5844 41V37.767H33.5844V41H39.5844ZM36.5844 40.767H37.1674V34.767H36.5844V40.767ZM37.1674 40.767C38.1477 40.767 39.15 40.6128 40.0982 40.2064L37.7347 34.6916C37.6935 34.7092 37.5298 34.767 37.1674 34.767V40.767ZM40.2581 40.1323C41.3576 39.5825 42.1806 38.724 42.7295 37.6948L37.4354 34.8712C37.4205 34.8991 37.4242 34.8841 37.4576 34.8507C37.4927 34.8156 37.5355 34.7853 37.5748 34.7657L40.2581 40.1323ZM42.7657 37.6246C43.3294 36.4973 43.5064 35.2457 43.5064 34.057H37.5064C37.5064 34.3668 37.4822 34.5898 37.4534 34.7412C37.4246 34.8922 37.3958 34.9479 37.3991 34.9414L42.7657 37.6246ZM43.5064 34.057V6.921H37.5064V34.057H43.5064ZM43.5064 6.921C43.5064 5.57811 43.1552 3.90745 41.7552 2.72284L37.8796 7.30316C37.7775 7.21675 37.6937 7.12062 37.6293 7.02487C37.566 6.9307 37.5307 6.85083 37.5125 6.80043C37.4794 6.7088 37.5064 6.7261 37.5064 6.921H43.5064ZM41.9387 2.89168C41.1773 2.13024 40.2462 1.5561 39.1594 1.26629L37.6134 7.0637C37.6135 7.06371 37.613 7.06359 37.6122 7.06331C37.6114 7.06303 37.6105 7.06271 37.6098 7.0624C37.608 7.06165 37.6087 7.06175 37.6123 7.06387C37.6183 7.06743 37.6471 7.08532 37.6961 7.13432L41.9387 2.89168ZM39.1594 1.26629C38.5666 1.1082 37.853 0.952997 37.1674 0.952997V6.953C37.0778 6.953 37.067 6.9437 37.1701 6.96163C37.2632 6.97782 37.4079 7.0089 37.6134 7.0637L39.1594 1.26629ZM37.1674 0.952997H36.5844V6.953H37.1674V0.952997ZM39.5844 3.953V0.719997H33.5844V3.953H39.5844ZM36.5844 3.72H50.8414V-2.28H36.5844V3.72ZM47.8414 0.719997V34.057H53.8414V0.719997H47.8414ZM47.8414 34.057C47.8414 35.2457 48.0185 36.4973 48.5821 37.6246L53.9487 34.9414C53.952 34.9479 53.9232 34.8922 53.8944 34.7412C53.8656 34.5898 53.8414 34.3668 53.8414 34.057H47.8414ZM48.6184 37.6948C49.1673 38.724 49.9903 39.5825 51.0898 40.1323L53.7731 34.7657C53.8123 34.7853 53.8551 34.8156 53.8902 34.8507C53.9236 34.8841 53.9274 34.8991 53.9125 34.8712L48.6184 37.6948ZM51.3172 40.2344C52.2399 40.6035 53.2063 40.767 54.1804 40.767V34.767C53.8826 34.767 53.683 34.7185 53.5456 34.6636L51.3172 40.2344ZM54.1804 40.767H54.7634V34.767H54.1804V40.767ZM51.7634 37.767V41H57.7634V37.767H51.7634ZM54.7634 38H36.5844V44H54.7634V38ZM61.9085 37.82L59.8469 39.9994L59.8469 39.9994L61.9085 37.82ZM61.7495 15.507L63.8403 17.6584L63.848 17.6509L63.8557 17.6433L61.7495 15.507ZM83.5855 15.507L81.5239 17.6864L81.5317 17.6938L81.5396 17.7011L83.5855 15.507ZM83.7445 37.82L81.6383 35.6837L81.6383 35.6837L83.7445 37.82ZM75.3175 36.495L77.7175 38.295L77.7175 38.295L75.3175 36.495ZM76.6425 32.732L73.685 32.2286L73.6798 32.2593L73.6752 32.2901L76.6425 32.732ZM76.6425 20.542L73.685 21.0454L73.6868 21.056L76.6425 20.542ZM70.1765 16.832L67.814 14.9831L67.7885 15.0156L67.764 15.0488L70.1765 16.832ZM68.8515 20.542L65.894 20.0386L65.8896 20.0646L65.8856 20.0907L68.8515 20.542ZM68.9045 32.732L65.947 33.2354L65.947 33.2354L68.9045 32.732ZM70.2295 36.495L67.7814 38.2291L67.805 38.2624L67.8295 38.295L70.2295 36.495ZM72.6675 38.53C68.6633 38.53 65.8901 37.4568 63.9701 35.6406L59.8469 39.9994C63.1562 43.1298 67.5557 44.53 72.6675 44.53V38.53ZM63.9701 35.6406C62.1558 33.9244 60.9865 31.1202 60.9865 26.637H54.9865C54.9865 32.1178 56.4318 36.7689 59.8469 39.9994L63.9701 35.6406ZM60.9865 26.637C60.9865 22.1173 62.1224 19.3278 63.8403 17.6584L59.6587 13.3556C56.3592 16.5621 54.9865 21.1927 54.9865 26.637H60.9865ZM63.8557 17.6433C65.6164 15.9074 68.4308 14.797 72.8265 14.797V8.797C67.4701 8.797 62.8999 10.1599 59.6433 13.3707L63.8557 17.6433ZM72.8265 14.797C76.8307 14.797 79.6039 15.8702 81.5239 17.6864L85.6471 13.3276C82.3378 10.1972 77.9383 8.797 72.8265 8.797V14.797ZM81.5396 17.7011C83.3369 19.377 84.5075 22.1504 84.5075 26.637H90.5075C90.5075 21.1596 89.0634 16.513 85.6314 13.3128L81.5396 17.7011ZM84.5075 26.637C84.5075 31.153 83.373 33.9734 81.6383 35.6837L85.8507 39.9563C89.1333 36.7199 90.5075 32.085 90.5075 26.637H84.5075ZM81.6383 35.6837C79.8775 37.4196 77.0631 38.53 72.6675 38.53V44.53C78.0238 44.53 82.5941 43.1671 85.8507 39.9563L81.6383 35.6837ZM72.7735 40.767C74.7777 40.767 76.5149 39.8984 77.7175 38.295L72.9175 34.695C72.8788 34.7465 72.8543 34.7686 72.8484 34.7737C72.8433 34.778 72.8488 34.7728 72.8628 34.7657C72.8769 34.7587 72.8844 34.7575 72.8779 34.7589C72.8703 34.7606 72.8379 34.767 72.7735 34.767V40.767ZM77.7175 38.295C78.7778 36.8813 79.3276 35.0681 79.6097 33.1739L73.6752 32.2901C73.4626 33.7172 73.1292 34.4127 72.9175 34.695L77.7175 38.295ZM79.5999 33.2354C79.92 31.3548 80.0665 29.1435 80.0665 26.637H74.0665C74.0665 28.9358 73.9303 30.7878 73.685 32.2286L79.5999 33.2354ZM80.0665 26.637C80.0665 24.1 79.9206 21.8825 79.5981 20.028L73.6868 21.056C73.9296 22.4521 74.0665 24.298 74.0665 26.637H80.0665ZM79.5999 20.0386C79.2807 18.1633 78.7056 16.3613 77.627 14.9831L72.902 18.6809C73.0953 18.928 73.4389 19.5994 73.685 21.0454L79.5999 20.0386ZM77.627 14.9831C76.4046 13.4211 74.6738 12.613 72.7205 12.613V18.613C72.7934 18.613 72.8346 18.6199 72.8509 18.6234C72.8659 18.6266 72.865 18.6279 72.8551 18.6232C72.8451 18.6184 72.8404 18.6143 72.8435 18.6169C72.8475 18.6201 72.8681 18.6377 72.902 18.6809L77.627 14.9831ZM72.7205 12.613C70.7671 12.613 69.0364 13.4211 67.814 14.9831L72.539 18.6809C72.5728 18.6377 72.5935 18.6201 72.5974 18.6169C72.6006 18.6143 72.5959 18.6184 72.5858 18.6232C72.576 18.6279 72.575 18.6266 72.5901 18.6234C72.6063 18.6199 72.6475 18.613 72.7205 18.613V12.613ZM67.764 15.0488C66.7566 16.4117 66.2094 18.1858 65.894 20.0386L71.8089 21.0454C72.0589 19.5768 72.395 18.8777 72.589 18.6152L67.764 15.0488ZM65.8856 20.0907C65.6075 21.918 65.4805 24.1127 65.4805 26.637H71.4805C71.4805 24.2853 71.6007 22.4166 71.8173 20.9933L65.8856 20.0907ZM65.4805 26.637C65.4805 29.1435 65.6269 31.3548 65.947 33.2354L71.8619 32.2286C71.6167 30.7878 71.4805 28.9358 71.4805 26.637H65.4805ZM65.947 33.2354C66.2637 35.0956 66.8083 36.8552 67.7814 38.2291L72.6776 34.7609C72.4494 34.4388 72.1106 33.6897 71.8619 32.2286L65.947 33.2354ZM67.8295 38.295C69.032 39.8984 70.7692 40.767 72.7735 40.767V34.767C72.7091 34.767 72.6767 34.7606 72.669 34.7589C72.6626 34.7575 72.6701 34.7587 72.6841 34.7657C72.6982 34.7728 72.7036 34.778 72.6986 34.7737C72.6926 34.7686 72.6681 34.7465 72.6295 34.695L67.8295 38.295ZM97.1878 39.622L95.3138 41.9646L95.3263 41.9746L95.3389 41.9845L97.1878 39.622ZM94.8028 16.62H97.8028V13.62H94.8028V16.62ZM90.8808 16.62H87.8808V19.62H90.8808V16.62ZM90.8808 13.493V10.493H87.8808V13.493H90.8808ZM94.6438 12.645L96.1323 15.2497L96.1668 15.23L96.2008 15.2094L94.6438 12.645ZM96.8698 10.896L94.7485 8.77468L94.6779 8.84531L94.6121 8.92048L96.8698 10.896ZM98.2478 8.882L95.61 7.45315L95.5866 7.49638L95.5646 7.54036L98.2478 8.882ZM99.3078 5.967V2.967H96.9097L96.3815 5.30622L99.3078 5.967ZM105.138 5.967H108.138V2.967H105.138V5.967ZM105.138 12.592H102.138V15.592H105.138V12.592ZM111.816 12.592H114.816V9.592H111.816V12.592ZM111.816 16.62V19.62H114.816V16.62H111.816ZM105.138 16.62V13.62H102.138V16.62H105.138ZM105.721 35.117L103.125 36.6201L103.154 36.6701L103.184 36.719L105.721 35.117ZM112.293 35.594H115.293V31.7517L111.565 32.6836L112.293 35.594ZM112.293 39.834L113.634 42.5173L115.293 41.6881V39.834H112.293ZM109.166 40.947L109.943 43.8445L109.976 43.8357L110.009 43.8262L109.166 40.947ZM103.707 38.53C101.443 38.53 99.9876 38.0036 99.0368 37.2595L95.3389 41.9845C97.6388 43.7844 100.53 44.53 103.707 44.53V38.53ZM99.0619 37.2794C98.4933 36.8245 97.8028 35.7367 97.8028 33.05H91.8028C91.8028 36.582 92.7024 39.8755 95.3138 41.9646L99.0619 37.2794ZM97.8028 33.05V16.62H91.8028V33.05H97.8028ZM94.8028 13.62H90.8808V19.62H94.8028V13.62ZM93.8808 16.62V13.493H87.8808V16.62H93.8808ZM90.8808 16.493C92.7541 16.493 94.5631 16.1464 96.1323 15.2497L93.1554 10.0403C92.7459 10.2743 92.0462 10.493 90.8808 10.493V16.493ZM96.2008 15.2094C97.3268 14.5257 98.3526 13.7572 99.1276 12.8715L94.6121 8.92048C94.3978 9.16547 93.9396 9.56294 93.0869 10.0806L96.2008 15.2094ZM98.9912 13.0173C99.7787 12.2298 100.411 11.2647 100.931 10.2236L95.5646 7.54036C95.2371 8.19533 94.9504 8.57285 94.7485 8.77468L98.9912 13.0173ZM100.886 10.3108C101.495 9.18544 101.936 7.94829 102.234 6.62778L96.3815 5.30622C96.185 6.17637 95.919 6.88255 95.61 7.45315L100.886 10.3108ZM99.3078 8.967H105.138V2.967H99.3078V8.967ZM102.138 5.967V12.592H108.138V5.967H102.138ZM105.138 15.592H111.816V9.592H105.138V15.592ZM108.816 12.592V16.62H114.816V12.592H108.816ZM111.816 13.62H105.138V19.62H111.816V13.62ZM102.138 16.62V31.99H108.138V16.62H102.138ZM102.138 31.99C102.138 33.5612 102.333 35.2531 103.125 36.6201L108.317 33.6139C108.344 33.6599 108.289 33.5821 108.233 33.2819C108.178 32.9904 108.138 32.569 108.138 31.99H102.138ZM103.184 36.719C104.431 38.6928 106.608 39.124 108.265 39.124V33.124C108.076 33.124 107.944 33.1114 107.86 33.098C107.775 33.0846 107.754 33.073 107.779 33.0828C107.806 33.0936 107.883 33.1283 107.98 33.2054C108.081 33.2851 108.179 33.3903 108.257 33.515L103.184 36.719ZM108.265 39.124C109.122 39.124 109.978 39.0597 110.83 38.9318L109.94 32.9982C109.379 33.0823 108.821 33.124 108.265 33.124V39.124ZM110.83 38.9318C111.611 38.8146 112.344 38.6736 113.02 38.5044L111.565 32.6836C111.111 32.7971 110.572 32.9034 109.94 32.9982L110.83 38.9318ZM109.293 35.594V39.834H115.293V35.594H109.293ZM110.951 37.1507C110.57 37.3412 109.747 37.6512 108.323 38.0678L110.009 43.8262C111.482 43.3948 112.743 42.9628 113.634 42.5173L110.951 37.1507ZM108.388 38.0495C107.28 38.3467 105.744 38.53 103.707 38.53V44.53C106.051 44.53 108.154 44.3246 109.943 43.8445L108.388 38.0495ZM114.378 41H111.378V44H114.378V41ZM114.378 37.767V34.767H111.378V37.767H114.378ZM116.445 37.555L117.218 40.4537L117.279 40.4374L117.339 40.4184L116.445 37.555ZM117.77 36.548L120.293 38.1703L120.318 38.1313L120.342 38.0915L117.77 36.548ZM117.558 5.013L115.436 7.13432L115.525 7.22255L115.62 7.30316L117.558 5.013ZM116.127 4.165L115.354 7.0637L115.354 7.0637L116.127 4.165ZM114.113 3.953H111.113V6.953H114.113V3.953ZM114.113 0.719997V-2.28H111.113V0.719997H114.113ZM128.582 0.719997H131.582V-2.28H128.582V0.719997ZM128.529 10.896L125.531 10.785L125.529 10.8405V10.896H128.529ZM128.476 13.493L125.478 13.3627L125.478 13.3627L128.476 13.493ZM128.317 15.666L125.335 15.3347L124.965 18.666H128.317V15.666ZM128.741 15.666V18.666H130.394L131.277 17.268L128.741 15.666ZM130.331 13.811L132.324 16.0532L132.358 16.0231L132.391 15.992L130.331 13.811ZM132.822 12.38L133.8 15.2161L133.843 15.2012L133.886 15.185L132.822 12.38ZM143.104 14.182L140.837 16.1468L140.849 16.161L140.861 16.1751L143.104 14.182ZM145.489 36.442L142.643 37.3907L142.67 37.4743L142.703 37.5562L145.489 36.442ZM146.496 37.502L145.419 40.302L145.419 40.302L146.496 37.502ZM148.563 37.767H151.563V34.767H148.563V37.767ZM148.563 41V44H151.563V41H148.563ZM134.889 41H131.889V44H134.889V41ZM134.2 18.952L131.362 19.925L131.374 19.9609L131.387 19.9966L134.2 18.952ZM129.748 18.316L132.359 19.7922L132.359 19.7922L129.748 18.316ZM128.847 21.39L131.826 21.7405L131.827 21.7306L128.847 21.39ZM128.953 36.548L126.195 37.7298L126.248 37.8526L126.311 37.9703L128.953 36.548ZM130.013 37.502L128.936 40.302L128.97 40.315L129.004 40.3272L130.013 37.502ZM132.133 37.767H135.133V34.767H132.133V37.767ZM132.133 41V44H135.133V41H132.133ZM117.378 41V37.767H111.378V41H117.378ZM114.378 40.767H114.59V34.767H114.378V40.767ZM114.59 40.767C115.486 40.767 116.375 40.6784 117.218 40.4537L115.672 34.6563C115.454 34.7143 115.106 34.767 114.59 34.767V40.767ZM117.339 40.4184C118.571 40.0335 119.592 39.2615 120.293 38.1703L115.246 34.9257C115.265 34.8961 115.31 34.839 115.385 34.7823C115.459 34.7257 115.523 34.6999 115.55 34.6916L117.339 40.4184ZM120.342 38.0915C121.068 36.8819 121.247 35.4654 121.247 34.216H115.247C115.247 34.5814 115.218 34.823 115.188 34.9663C115.158 35.1121 115.14 35.0999 115.197 35.0045L120.342 38.0915ZM121.247 34.216V6.921H115.247V34.216H121.247ZM121.247 6.921C121.247 5.57811 120.895 3.90745 119.495 2.72284L115.62 7.30316C115.518 7.21675 115.434 7.12062 115.37 7.02487C115.306 6.9307 115.271 6.85083 115.253 6.80043C115.22 6.7088 115.247 6.7261 115.247 6.921H121.247ZM119.679 2.89168C118.918 2.13024 117.986 1.5561 116.9 1.26629L115.354 7.0637C115.354 7.06371 115.353 7.06359 115.352 7.06331C115.352 7.06303 115.351 7.06271 115.35 7.0624C115.348 7.06165 115.349 7.06175 115.352 7.06387C115.359 7.06743 115.387 7.08532 115.436 7.13432L119.679 2.89168ZM116.9 1.26629C116.307 1.1082 115.593 0.952997 114.908 0.952997V6.953C114.818 6.953 114.807 6.9437 114.91 6.96163C115.003 6.97782 115.148 7.0089 115.354 7.0637L116.9 1.26629ZM114.908 0.952997H114.113V6.953H114.908V0.952997ZM117.113 3.953V0.719997H111.113V3.953H117.113ZM114.113 3.72H128.582V-2.28H114.113V3.72ZM125.582 0.719997V8.034H131.582V0.719997H125.582ZM125.582 8.034C125.582 8.95095 125.565 9.86794 125.531 10.785L131.527 11.007C131.563 10.0161 131.582 9.02504 131.582 8.034H125.582ZM125.529 10.896C125.529 11.7767 125.512 12.5985 125.478 13.3627L131.473 13.6233C131.51 12.7621 131.529 11.8527 131.529 10.896H125.529ZM125.478 13.3627C125.445 14.1252 125.397 14.7805 125.335 15.3347L131.298 15.9973C131.378 15.2795 131.435 14.4861 131.473 13.6233L125.478 13.3627ZM128.317 18.666H128.741V12.666H128.317V18.666ZM131.277 17.268C131.541 16.8509 131.883 16.445 132.324 16.0532L128.338 11.5688C127.506 12.3076 126.789 13.1384 126.204 14.064L131.277 17.268ZM132.391 15.992C132.652 15.7453 133.084 15.4628 133.8 15.2161L131.844 9.54388C130.51 10.0039 129.282 10.6753 128.271 11.63L132.391 15.992ZM133.886 15.185C134.467 14.9646 135.351 14.797 136.638 14.797V8.797C134.885 8.797 133.226 9.01809 131.758 9.57501L133.886 15.185ZM136.638 14.797C139.057 14.797 140.226 15.4428 140.837 16.1468L145.371 12.2172C143.225 9.74124 140.084 8.797 136.638 8.797V14.797ZM140.861 16.1751C141.549 16.9483 142.224 18.6245 142.224 21.92H148.224C148.224 18.0781 147.485 14.5957 145.346 12.1889L140.861 16.1751ZM142.224 21.92V34.057H148.224V21.92H142.224ZM142.224 34.057C142.224 35.2046 142.31 36.3917 142.643 37.3907L148.335 35.4933C148.335 35.4942 148.301 35.3863 148.272 35.117C148.243 34.8581 148.224 34.5095 148.224 34.057H142.224ZM142.703 37.5562C143.171 38.7257 144.053 39.7769 145.419 40.302L147.573 34.702C147.755 34.772 147.932 34.8885 148.074 35.0383C148.209 35.1803 148.263 35.2991 148.274 35.3278L142.703 37.5562ZM145.419 40.302C146.362 40.6649 147.394 40.767 148.351 40.767V34.767C148.071 34.767 147.868 34.7508 147.728 34.7309C147.586 34.7105 147.544 34.6911 147.573 34.702L145.419 40.302ZM148.351 40.767H148.563V34.767H148.351V40.767ZM145.563 37.767V41H151.563V37.767H145.563ZM148.563 38H134.889V44H148.563V38ZM137.889 41V24.199H131.889V41H137.889ZM137.889 24.199C137.889 21.7983 137.653 19.6347 137.012 17.9074L131.387 19.9966C131.665 20.7427 131.889 22.077 131.889 24.199H137.889ZM137.037 17.979C136.697 16.9871 136.124 15.9748 135.166 15.2129C134.174 14.4238 133.013 14.097 131.868 14.097V20.097C131.876 20.097 131.82 20.0978 131.725 20.0668C131.624 20.0344 131.521 19.98 131.431 19.9086C131.251 19.765 131.278 19.6803 131.362 19.925L137.037 17.979ZM131.868 14.097C129.862 14.097 128.142 15.0601 127.136 16.8398L132.359 19.7922C132.364 19.7848 132.295 19.9006 132.118 20.0025C131.944 20.1024 131.825 20.097 131.868 20.097V14.097ZM127.136 16.8398C126.425 18.0981 126.039 19.5393 125.866 21.0494L131.827 21.7306C131.937 20.7674 132.152 20.1592 132.359 19.7922L127.136 16.8398ZM125.867 21.0395C125.712 22.3597 125.635 23.6958 125.635 25.047H131.635C131.635 23.9249 131.699 22.8229 131.826 21.7405L125.867 21.0395ZM125.635 25.047V34.375H131.635V25.047H125.635ZM125.635 34.375C125.635 35.4696 125.744 36.6772 126.195 37.7298L131.71 35.3662C131.736 35.4261 131.71 35.3899 131.683 35.1994C131.656 35.0165 131.635 34.7476 131.635 34.375H125.635ZM126.311 37.9703C126.876 39.02 127.765 39.8516 128.936 40.302L131.09 34.702C131.19 34.7405 131.305 34.8062 131.41 34.9011C131.514 34.9943 131.57 35.0812 131.594 35.1257L126.311 37.9703ZM129.004 40.3272C129.938 40.6609 130.949 40.767 131.921 40.767V34.767C131.338 34.767 131.077 34.6965 131.022 34.6768L129.004 40.3272ZM131.921 40.767H132.133V34.767H131.921V40.767ZM129.133 37.767V41H135.133V37.767H129.133ZM132.133 38H114.378V44H132.133V38ZM155.686 37.714L153.491 39.7588L153.506 39.7744L153.52 39.7897L155.686 37.714ZM155.792 15.613L153.641 13.5218L153.641 13.5218L155.792 15.613ZM176.038 15.083L174.001 17.2849L174.018 17.3006L174.035 17.3161L176.038 15.083ZM179.642 27.538V30.538H182.642V27.538H179.642ZM162.47 27.538V24.538H159.372L159.472 27.6347L162.47 27.538ZM163.371 32.944L160.562 33.9974L160.562 33.9974L163.371 32.944ZM165.703 36.071L164.059 38.5804L164.059 38.5804L165.703 36.071ZM172.593 36.442L171.295 33.7374L171.273 33.7479L171.252 33.7587L172.593 36.442ZM174.819 34.693L177.151 36.5806L177.151 36.5806L174.819 34.693ZM176.303 32.202L177.067 29.3008L174.553 28.6393L173.54 31.0331L176.303 32.202ZM177.946 33.156L175.742 35.1908L175.782 35.2349L175.825 35.2773L177.946 33.156ZM177.469 38.032L175.079 36.2188L175.079 36.2188L177.469 38.032ZM173.706 40.576L174.76 43.385L174.775 43.3791L174.791 43.3731L173.706 40.576ZM169.519 23.775V26.775H172.519V23.775H169.519ZM169.201 19.323L172.156 18.8016L172.156 18.8016L169.201 19.323ZM168.194 16.62L165.698 18.2841L165.752 18.3651L165.811 18.4423L168.194 16.62ZM164.484 16.62L166.606 18.7413L166.636 18.711L166.665 18.6799L164.484 16.62ZM163.053 19.323L160.175 18.4765L160.164 18.5158L160.153 18.5553L163.053 19.323ZM162.576 23.775H159.576V26.775H162.576V23.775ZM166.869 38.53C162.318 38.53 159.52 37.3786 157.852 35.6383L153.52 39.7897C156.728 43.1374 161.386 44.53 166.869 44.53V38.53ZM157.881 35.6692C156.141 33.8012 155.082 31.016 155.082 26.902H149.082C149.082 32.0454 150.426 36.4682 153.491 39.7588L157.881 35.6692ZM155.082 26.902C155.082 22.3824 156.202 19.4952 157.943 17.7042L153.641 13.5218C150.436 16.8188 149.082 21.4576 149.082 26.902H155.082ZM157.943 17.7042C159.711 15.8858 162.329 14.797 166.233 14.797V8.797C161.162 8.797 156.82 10.2522 153.641 13.5218L157.943 17.7042ZM166.233 14.797C169.875 14.797 172.335 15.7437 174.001 17.2849L178.076 12.8811C175.007 10.0409 170.93 8.797 166.233 8.797V14.797ZM174.035 17.3161C175.625 18.7424 176.642 20.9971 176.642 24.623H182.642C182.642 19.8396 181.257 15.7343 178.041 12.8499L174.035 17.3161ZM176.642 24.623V27.538H182.642V24.623H176.642ZM179.642 24.538H162.47V30.538H179.642V24.538ZM159.472 27.6347C159.549 30.0181 159.878 32.173 160.562 33.9974L166.18 31.8906C165.804 30.8883 165.533 29.4392 165.469 27.4413L159.472 27.6347ZM160.562 33.9974C161.263 35.8666 162.388 37.4855 164.059 38.5804L167.347 33.5616C166.969 33.3139 166.539 32.8481 166.18 31.8906L160.562 33.9974ZM164.059 38.5804C165.678 39.6411 167.556 40.078 169.519 40.078V34.078C168.443 34.078 167.778 33.8436 167.347 33.5616L164.059 38.5804ZM169.519 40.078C171.065 40.078 172.574 39.8057 173.935 39.1253L171.252 33.7587C170.916 33.9263 170.376 34.078 169.519 34.078V40.078ZM173.891 39.1466C175.165 38.5354 176.263 37.6774 177.151 36.5806L172.487 32.8054C172.174 33.1926 171.788 33.5006 171.295 33.7374L173.891 39.1466ZM177.151 36.5806C177.936 35.6108 178.573 34.5365 179.066 33.3709L173.54 31.0331C173.256 31.7048 172.904 32.2912 172.487 32.8054L177.151 36.5806ZM175.54 35.1032C175.64 35.1296 175.691 35.1558 175.711 35.1674C175.729 35.1778 175.736 35.1844 175.742 35.1908L180.151 31.1212C179.297 30.196 178.228 29.6064 177.067 29.3008L175.54 35.1032ZM175.825 35.2773C175.774 35.2269 175.713 35.1429 175.672 35.0373C175.632 34.9368 175.635 34.8802 175.635 34.905H181.635C181.635 33.4797 181.142 32.1089 180.068 31.0347L175.825 35.2773ZM175.635 34.905C175.635 35.1801 175.547 35.6016 175.079 36.2188L179.859 39.8452C180.946 38.4131 181.635 36.7499 181.635 34.905H175.635ZM175.079 36.2188C174.755 36.6463 174.052 37.2242 172.622 37.7789L174.791 43.3731C176.823 42.5851 178.629 41.467 179.859 39.8452L175.079 36.2188ZM172.653 37.767C171.431 38.2251 169.556 38.53 166.869 38.53V44.53C169.907 44.53 172.589 44.1989 174.76 43.385L172.653 37.767ZM172.519 23.775C172.519 21.9038 172.408 20.2327 172.156 18.8016L166.247 19.8444C166.418 20.816 166.519 22.1129 166.519 23.775H172.519ZM172.156 18.8016C171.906 17.3858 171.455 15.9449 170.577 14.7977L165.811 18.4423C165.853 18.4965 166.073 18.8575 166.247 19.8444L172.156 18.8016ZM170.69 14.9559C169.764 13.5661 168.301 12.666 166.498 12.666V18.666C166.384 18.666 166.187 18.6351 165.981 18.5192C165.785 18.4086 165.702 18.2894 165.698 18.2841L170.69 14.9559ZM166.498 12.666C164.783 12.666 163.36 13.4407 162.303 14.5601L166.665 18.6799C166.754 18.5856 166.778 18.5896 166.722 18.6157C166.695 18.6285 166.658 18.6424 166.613 18.6525C166.569 18.6625 166.529 18.666 166.498 18.666V12.666ZM162.363 14.4987C161.278 15.5831 160.608 17.0054 160.175 18.4765L165.931 20.1695C166.205 19.2379 166.489 18.8582 166.606 18.7413L162.363 14.4987ZM160.153 18.5553C159.747 20.0878 159.576 21.8485 159.576 23.775H165.576C165.576 22.1682 165.723 20.9609 165.953 20.0907L160.153 18.5553ZM162.576 26.775H169.519V20.775H162.576V26.775ZM189.641 40.788L190.435 37.895L190.435 37.895L189.641 40.788ZM185.454 38.88L187.307 36.521L187.307 36.521L185.454 38.88ZM183.387 36.442L180.618 37.5958L180.638 37.6443L180.66 37.692L183.387 36.442ZM183.864 30.506L181.559 28.5854L181.535 28.6144L181.512 28.6439L183.864 30.506ZM186.514 28.757L187.376 31.6305L187.42 31.6174L187.463 31.603L186.514 28.757ZM189.906 28.227H192.906V25.227H189.906V28.227ZM191.072 33.951L188.443 35.3968L188.457 35.4217L188.471 35.4464L191.072 33.951ZM194.093 37.025L192.689 39.6764L192.735 39.7008L192.782 39.7235L194.093 37.025ZM202.096 36.336L199.905 34.2865L199.903 34.289L202.096 36.336ZM202.467 29.976L200.252 31.9988L200.275 32.0245L200.299 32.0497L202.467 29.976ZM199.234 27.697L197.865 30.3665L197.879 30.3734L197.892 30.3803L199.234 27.697ZM194.305 25.471L195.437 22.6927L195.428 22.6889L194.305 25.471ZM189.27 22.927L187.545 25.3816L187.583 25.408L187.621 25.4333L189.27 22.927ZM184.5 16.938L187.381 16.1016L187.381 16.1016L184.5 16.938ZM185.878 7.716L183.515 5.86707L183.503 5.88317L183.49 5.89943L185.878 7.716ZM191.019 3.953L189.881 1.17708L189.881 1.17708L191.019 3.953ZM205.276 3.635L204.229 6.44624L204.237 6.44955L204.246 6.45279L205.276 3.635ZM209.304 6.179L206.993 8.0917L207.009 8.11168L207.026 8.13138L209.304 6.179ZM208.827 12.645L206.97 10.2885L206.953 10.3025L206.935 10.3167L208.827 12.645ZM202.891 14.023H199.891V17.023H202.891V14.023ZM202.202 10.472L199.4 11.5434L199.405 11.5575L199.411 11.5716L202.202 10.472ZM200.188 7.504L198.112 9.66996L198.158 9.71405L198.206 9.75614L200.188 7.504ZM194.676 6.709L195.79 9.49443L195.79 9.49443L194.676 6.709ZM192.98 8.034L195.38 9.834L195.406 9.79939L195.431 9.76405L192.98 8.034ZM193.033 12.486L195.584 10.9069L195.584 10.9069L193.033 12.486ZM195.736 14.924L194.087 17.4303L194.125 17.4552L194.164 17.479L195.736 14.924ZM201.725 17.786L200.598 20.5662L200.611 20.5714L200.623 20.5765L201.725 17.786ZM207.979 21.231L206.058 23.5357L206.088 23.5603L206.118 23.5842L207.979 21.231ZM211.159 25.153L208.398 26.3264L208.403 26.3391L208.409 26.3518L211.159 25.153ZM210.152 35.859L207.717 34.1061L207.706 34.1223L207.694 34.1386L210.152 35.859ZM204.799 40.046L205.986 42.8012L205.996 42.7969L206.006 42.7926L204.799 40.046ZM196.637 38.53C193.917 38.53 191.88 38.2916 190.435 37.895L188.847 43.681C191.006 44.2737 193.633 44.53 196.637 44.53V38.53ZM190.435 37.895C188.848 37.4594 187.869 36.9621 187.307 36.521L183.6 41.239C185.018 42.3526 186.83 43.1272 188.847 43.681L190.435 37.895ZM187.307 36.521C186.569 35.9405 186.247 35.4817 186.114 35.192L180.66 37.692C181.304 39.0983 182.361 40.2649 183.6 41.239L187.307 36.521ZM186.156 35.2882C185.903 34.6796 185.857 34.3213 185.857 34.163H179.857C179.857 35.3474 180.165 36.5084 180.618 37.5958L186.156 35.2882ZM185.857 34.163C185.857 32.9426 186.122 32.4876 186.216 32.3681L181.512 28.6439C180.264 30.2204 179.857 32.2034 179.857 34.163H185.857ZM186.169 32.4266C186.497 32.0321 186.878 31.7797 187.376 31.6305L185.652 25.8835C184.029 26.3702 182.644 27.2839 181.559 28.5854L186.169 32.4266ZM187.463 31.603C188.195 31.3591 189.003 31.227 189.906 31.227V25.227C188.406 25.227 186.953 25.4483 185.565 25.9109L187.463 31.603ZM186.906 28.227C186.906 30.9064 187.332 33.3759 188.443 35.3968L193.701 32.5052C193.257 31.6995 192.906 30.353 192.906 28.227H186.906ZM188.471 35.4464C189.509 37.2515 190.896 38.727 192.689 39.6764L195.497 34.3736C194.887 34.051 194.26 33.4771 193.673 32.4556L188.471 35.4464ZM192.782 39.7235C194.381 40.5002 196.064 40.926 197.803 40.926V34.926C197.069 34.926 196.278 34.7511 195.404 34.3265L192.782 39.7235ZM197.803 40.926C200.251 40.926 202.579 40.2157 204.289 38.383L199.903 34.289C199.635 34.5763 199.1 34.926 197.803 34.926V40.926ZM204.287 38.3855C205.696 36.8788 206.633 35.0305 206.633 32.891H200.633C200.633 33.1541 200.545 33.6025 199.905 34.2865L204.287 38.3855ZM206.633 32.891C206.633 30.9924 205.949 29.2767 204.635 27.9023L200.299 32.0497C200.539 32.3007 200.633 32.5282 200.633 32.891H206.633ZM204.682 27.9532C203.609 26.7778 202.187 25.8192 200.576 25.0137L197.892 30.3803C199.108 30.9881 199.841 31.5489 200.252 31.9988L204.682 27.9532ZM200.603 25.0275C199.127 24.2707 197.401 23.4929 195.437 22.6927L193.173 28.2493C195.025 29.0038 196.585 29.71 197.865 30.3665L200.603 25.0275ZM195.428 22.6889C193.538 21.9265 192.049 21.1646 190.919 20.4207L187.621 25.4333C189.176 26.4561 191.044 27.3901 193.182 28.2531L195.428 22.6889ZM190.995 20.4724C189.866 19.679 189.057 18.9183 188.502 18.2115L183.784 21.9185C184.783 23.1904 186.06 24.3377 187.545 25.3816L190.995 20.4724ZM188.502 18.2115C187.938 17.4934 187.581 16.7912 187.381 16.1016L181.619 17.7744C182.055 19.2754 182.794 20.658 183.784 21.9185L188.502 18.2115ZM187.381 16.1016C187.144 15.2841 187.023 14.4353 187.023 13.546H181.023C181.023 14.9887 181.22 16.4012 181.619 17.7744L187.381 16.1016ZM187.023 13.546C187.023 11.8666 187.469 10.5795 188.265 9.53256L183.49 5.89943C181.814 8.10317 181.023 10.7027 181.023 13.546H187.023ZM188.24 9.56492C189.152 8.40021 190.42 7.44065 192.157 6.72891L189.881 1.17708C187.307 2.23202 185.148 3.78113 183.515 5.86707L188.24 9.56492ZM192.157 6.72891C193.9 6.0144 195.926 5.628 198.28 5.628V-0.372002C195.263 -0.372002 192.449 0.124931 189.881 1.17708L192.157 6.72891ZM198.28 5.628C200.942 5.628 202.883 5.94497 204.229 6.44624L206.323 0.823751C204.065 -0.017645 201.342 -0.372002 198.28 -0.372002V5.628ZM204.246 6.45279C205.804 7.02175 206.607 7.62599 206.993 8.0917L211.615 4.2663C210.305 2.68268 208.423 1.59091 206.306 0.817203L204.246 6.45279ZM207.026 8.13138C207.501 8.68515 207.576 9.05745 207.576 9.306H213.576C213.576 7.36388 212.803 5.65151 211.582 4.22662L207.026 8.13138ZM207.576 9.306C207.576 9.56172 207.525 9.85138 206.97 10.2885L210.684 15.0015C212.461 13.6013 213.576 11.6649 213.576 9.306H207.576ZM206.935 10.3167C206.652 10.547 205.584 11.023 202.891 11.023V17.023C205.851 17.023 208.741 16.5803 210.719 14.9733L206.935 10.3167ZM205.891 14.023C205.891 12.4291 205.584 10.8732 204.993 9.37243L199.411 11.5716C199.738 12.4027 199.891 13.2142 199.891 14.023H205.891ZM205.004 9.40058C204.388 7.78817 203.451 6.37966 202.17 5.25186L198.206 9.75614C198.691 10.183 199.098 10.7532 199.4 11.5434L205.004 9.40058ZM202.264 5.33803C200.808 3.94335 198.983 3.285 197.008 3.285V9.285C197.577 9.285 197.872 9.43931 198.112 9.66996L202.264 5.33803ZM197.008 3.285C195.822 3.285 194.661 3.48385 193.562 3.92357L195.79 9.49443C196.104 9.36881 196.498 9.285 197.008 9.285V3.285ZM193.562 3.92357C192.337 4.41351 191.3 5.21245 190.529 6.30395L195.431 9.76405C195.508 9.65421 195.602 9.56982 195.79 9.49443L193.562 3.92357ZM190.58 6.234C189.65 7.47343 189.344 8.93451 189.344 10.313H195.344C195.344 9.78349 195.462 9.72524 195.38 9.834L190.58 6.234ZM189.344 10.313C189.344 11.6953 189.798 12.9599 190.482 14.0651L195.584 10.9069C195.349 10.528 195.344 10.344 195.344 10.313H189.344ZM190.482 14.0651C191.291 15.3717 192.636 16.4758 194.087 17.4303L197.385 12.4177C196.15 11.6056 195.694 11.0843 195.584 10.9069L190.482 14.0651ZM194.164 17.479C195.75 18.4554 197.924 19.4823 200.598 20.5662L202.852 15.0058C200.296 13.9697 198.478 13.0886 197.308 12.369L194.164 17.479ZM200.623 20.5765C203.144 21.5712 204.909 22.5779 206.058 23.5357L209.9 18.9263C208.081 17.4107 205.677 16.1208 202.826 14.9955L200.623 20.5765ZM206.118 23.5842C207.344 24.5538 208.039 25.4811 208.398 26.3264L213.92 23.9796C213.078 21.9982 211.652 20.3109 209.84 18.8778L206.118 23.5842ZM208.409 26.3518C208.825 27.306 209.06 28.4276 209.06 29.764H215.06C215.06 27.7084 214.694 25.756 213.909 23.9542L208.409 26.3518ZM209.06 29.764C209.06 31.4683 208.601 32.879 207.717 34.1061L212.587 37.6119C214.247 35.3056 215.06 32.653 215.06 29.764H209.06ZM207.694 34.1386C206.826 35.3793 205.513 36.4554 203.592 37.2994L206.006 42.7926C208.749 41.5873 211.005 39.8721 212.61 37.5794L207.694 34.1386ZM203.612 37.2908C201.773 38.0828 199.475 38.53 196.637 38.53V44.53C200.088 44.53 203.231 43.9879 205.986 42.8012L203.612 37.2908ZM214.788 41H211.788V44H214.788V41ZM214.788 37.767V34.767H211.788V37.767H214.788ZM216.855 37.555L217.628 40.4537L217.689 40.4374L217.75 40.4184L216.855 37.555ZM218.18 36.548L220.703 38.1703L220.728 38.1313L220.752 38.0915L218.18 36.548ZM217.968 5.013L215.846 7.13432L215.935 7.22255L216.03 7.30316L217.968 5.013ZM216.537 4.165L215.764 7.0637L215.764 7.0637L216.537 4.165ZM214.523 3.953H211.523V6.953H214.523V3.953ZM214.523 0.719997V-2.28H211.523V0.719997H214.523ZM228.992 0.719997H231.992V-2.28H228.992V0.719997ZM228.939 10.896L225.941 10.785L225.939 10.8405V10.896H228.939ZM228.886 13.493L225.889 13.3627L225.889 13.3627L228.886 13.493ZM228.727 15.666L225.745 15.3347L225.375 18.666H228.727V15.666ZM229.151 15.666V18.666H230.804L231.687 17.268L229.151 15.666ZM230.741 13.811L232.734 16.0532L232.768 16.0231L232.801 15.992L230.741 13.811ZM233.232 12.38L234.21 15.2161L234.253 15.2012L234.296 15.185L233.232 12.38ZM243.514 14.182L241.247 16.1468L241.259 16.161L241.272 16.1751L243.514 14.182ZM245.899 36.442L243.053 37.3907L243.081 37.4743L243.113 37.5562L245.899 36.442ZM246.906 37.502L245.829 40.302L245.829 40.302L246.906 37.502ZM248.973 37.767H251.973V34.767H248.973V37.767ZM248.973 41V44H251.973V41H248.973ZM235.299 41H232.299V44H235.299V41ZM234.61 18.952L231.772 19.925L231.784 19.9609L231.798 19.9966L234.61 18.952ZM230.158 18.316L232.769 19.7922L232.769 19.7922L230.158 18.316ZM229.257 21.39L232.236 21.7405L232.237 21.7306L229.257 21.39ZM229.363 36.548L226.605 37.7298L226.658 37.8526L226.721 37.9703L229.363 36.548ZM230.423 37.502L229.346 40.302L229.38 40.315L229.414 40.3272L230.423 37.502ZM232.543 37.767H235.543V34.767H232.543V37.767ZM232.543 41V44H235.543V41H232.543ZM217.788 41V37.767H211.788V41H217.788ZM214.788 40.767H215V34.767H214.788V40.767ZM215 40.767C215.897 40.767 216.785 40.6784 217.628 40.4537L216.082 34.6563C215.864 34.7143 215.516 34.767 215 34.767V40.767ZM217.75 40.4184C218.981 40.0335 220.002 39.2615 220.703 38.1703L215.656 34.9257C215.675 34.8961 215.72 34.839 215.795 34.7823C215.869 34.7257 215.933 34.6999 215.96 34.6916L217.75 40.4184ZM220.752 38.0915C221.478 36.8819 221.657 35.4654 221.657 34.216H215.657C215.657 34.5814 215.628 34.823 215.598 34.9663C215.569 35.1121 215.55 35.0999 215.607 35.0045L220.752 38.0915ZM221.657 34.216V6.921H215.657V34.216H221.657ZM221.657 6.921C221.657 5.57811 221.306 3.90745 219.906 2.72284L216.03 7.30316C215.928 7.21675 215.844 7.12062 215.78 7.02487C215.716 6.9307 215.681 6.85083 215.663 6.80043C215.63 6.7088 215.657 6.7261 215.657 6.921H221.657ZM220.089 2.89168C219.328 2.13024 218.397 1.5561 217.31 1.26629L215.764 7.0637C215.764 7.06371 215.763 7.06359 215.763 7.06331C215.762 7.06303 215.761 7.06271 215.76 7.0624C215.758 7.06165 215.759 7.06175 215.763 7.06387C215.769 7.06743 215.797 7.08532 215.846 7.13432L220.089 2.89168ZM217.31 1.26629C216.717 1.1082 216.003 0.952997 215.318 0.952997V6.953C215.228 6.953 215.217 6.9437 215.321 6.96163C215.414 6.97782 215.558 7.0089 215.764 7.0637L217.31 1.26629ZM215.318 0.952997H214.523V6.953H215.318V0.952997ZM217.523 3.953V0.719997H211.523V3.953H217.523ZM214.523 3.72H228.992V-2.28H214.523V3.72ZM225.992 0.719997V8.034H231.992V0.719997H225.992ZM225.992 8.034C225.992 8.95095 225.975 9.86794 225.941 10.785L231.937 11.007C231.973 10.0161 231.992 9.02504 231.992 8.034H225.992ZM225.939 10.896C225.939 11.7767 225.922 12.5985 225.889 13.3627L231.883 13.6233C231.92 12.7621 231.939 11.8527 231.939 10.896H225.939ZM225.889 13.3627C225.855 14.1252 225.807 14.7805 225.745 15.3347L231.708 15.9973C231.788 15.2795 231.845 14.4861 231.883 13.6233L225.889 13.3627ZM228.727 18.666H229.151V12.666H228.727V18.666ZM231.687 17.268C231.951 16.8509 232.293 16.445 232.734 16.0532L228.748 11.5688C227.916 12.3076 227.199 13.1384 226.614 14.064L231.687 17.268ZM232.801 15.992C233.062 15.7453 233.494 15.4628 234.21 15.2161L232.254 9.54388C230.92 10.0039 229.692 10.6753 228.681 11.63L232.801 15.992ZM234.296 15.185C234.877 14.9646 235.762 14.797 237.048 14.797V8.797C235.295 8.797 233.636 9.01809 232.168 9.57501L234.296 15.185ZM237.048 14.797C239.467 14.797 240.637 15.4428 241.247 16.1468L245.781 12.2172C243.635 9.74124 240.494 8.797 237.048 8.797V14.797ZM241.272 16.1751C241.959 16.9483 242.634 18.6245 242.634 21.92H248.634C248.634 18.0781 247.895 14.5957 245.756 12.1889L241.272 16.1751ZM242.634 21.92V34.057H248.634V21.92H242.634ZM242.634 34.057C242.634 35.2046 242.72 36.3917 243.053 37.3907L248.745 35.4933C248.745 35.4942 248.712 35.3863 248.682 35.117C248.653 34.8581 248.634 34.5095 248.634 34.057H242.634ZM243.113 37.5562C243.581 38.7257 244.464 39.7769 245.829 40.302L247.983 34.702C248.165 34.772 248.342 34.8885 248.485 35.0383C248.62 35.1803 248.673 35.2991 248.684 35.3278L243.113 37.5562ZM245.829 40.302C246.772 40.6649 247.804 40.767 248.761 40.767V34.767C248.481 34.767 248.278 34.7508 248.138 34.7309C247.996 34.7105 247.955 34.6911 247.983 34.702L245.829 40.302ZM248.761 40.767H248.973V34.767H248.761V40.767ZM245.973 37.767V41H251.973V37.767H245.973ZM248.973 38H235.299V44H248.973V38ZM238.299 41V24.199H232.299V41H238.299ZM238.299 24.199C238.299 21.7983 238.064 19.6347 237.422 17.9074L231.798 19.9966C232.075 20.7427 232.299 22.077 232.299 24.199H238.299ZM237.448 17.979C237.108 16.9871 236.534 15.9748 235.576 15.2129C234.584 14.4238 233.423 14.097 232.278 14.097V20.097C232.286 20.097 232.23 20.0978 232.135 20.0668C232.035 20.0344 231.931 19.98 231.841 19.9086C231.661 19.765 231.688 19.6803 231.772 19.925L237.448 17.979ZM232.278 14.097C230.272 14.097 228.552 15.0601 227.546 16.8398L232.769 19.7922C232.774 19.7848 232.705 19.9006 232.528 20.0025C232.354 20.1024 232.235 20.097 232.278 20.097V14.097ZM227.546 16.8398C226.835 18.0981 226.449 19.5393 226.276 21.0494L232.237 21.7306C232.347 20.7674 232.562 20.1592 232.769 19.7922L227.546 16.8398ZM226.277 21.0395C226.122 22.3597 226.045 23.6958 226.045 25.047H232.045C232.045 23.9249 232.109 22.8229 232.236 21.7405L226.277 21.0395ZM226.045 25.047V34.375H232.045V25.047H226.045ZM226.045 34.375C226.045 35.4696 226.154 36.6772 226.605 37.7298L232.12 35.3662C232.146 35.4261 232.121 35.3899 232.093 35.1994C232.066 35.0165 232.045 34.7476 232.045 34.375H226.045ZM226.721 37.9703C227.287 39.02 228.175 39.8516 229.346 40.302L231.5 34.702C231.6 34.7405 231.715 34.8062 231.82 34.9011C231.924 34.9943 231.98 35.0812 232.004 35.1257L226.721 37.9703ZM229.414 40.3272C230.348 40.6609 231.359 40.767 232.331 40.767V34.767C231.748 34.767 231.487 34.6965 231.432 34.6768L229.414 40.3272ZM232.331 40.767H232.543V34.767H232.331V40.767ZM229.543 37.767V41H235.543V37.767H229.543ZM232.543 38H214.788V44H232.543V38ZM256.414 37.82L254.353 39.9994L254.353 39.9994L256.414 37.82ZM256.255 15.507L258.346 17.6584L258.354 17.6509L258.362 17.6433L256.255 15.507ZM278.091 15.507L276.03 17.6864L276.038 17.6938L276.045 17.7011L278.091 15.507ZM278.25 37.82L276.144 35.6837L276.144 35.6837L278.25 37.82ZM269.823 36.495L272.223 38.295L272.223 38.295L269.823 36.495ZM271.148 32.732L268.191 32.2286L268.186 32.2593L268.181 32.2901L271.148 32.732ZM271.148 20.542L268.191 21.0454L268.193 21.056L271.148 20.542ZM264.682 16.832L262.32 14.9831L262.294 15.0156L262.27 15.0488L264.682 16.832ZM263.357 20.542L260.4 20.0386L260.395 20.0646L260.391 20.0907L263.357 20.542ZM263.41 32.732L260.453 33.2354L260.453 33.2354L263.41 32.732ZM264.735 36.495L262.287 38.2291L262.311 38.2624L262.335 38.295L264.735 36.495ZM267.173 38.53C263.169 38.53 260.396 37.4568 258.476 35.6406L254.353 39.9994C257.662 43.1298 262.062 44.53 267.173 44.53V38.53ZM258.476 35.6406C256.662 33.9244 255.492 31.1202 255.492 26.637H249.492C249.492 32.1178 250.938 36.7689 254.353 39.9994L258.476 35.6406ZM255.492 26.637C255.492 22.1173 256.628 19.3278 258.346 17.6584L254.165 13.3556C250.865 16.5621 249.492 21.1927 249.492 26.637H255.492ZM258.362 17.6433C260.122 15.9074 262.937 14.797 267.332 14.797V8.797C261.976 8.797 257.406 10.1599 254.149 13.3707L258.362 17.6433ZM267.332 14.797C271.337 14.797 274.11 15.8702 276.03 17.6864L280.153 13.3276C276.844 10.1972 272.444 8.797 267.332 8.797V14.797ZM276.045 17.7011C277.843 19.377 279.013 22.1504 279.013 26.637H285.013C285.013 21.1596 283.569 16.513 280.137 13.3128L276.045 17.7011ZM279.013 26.637C279.013 31.153 277.879 33.9734 276.144 35.6837L280.357 39.9563C283.639 36.7199 285.013 32.085 285.013 26.637H279.013ZM276.144 35.6837C274.383 37.4196 271.569 38.53 267.173 38.53V44.53C272.53 44.53 277.1 43.1671 280.357 39.9563L276.144 35.6837ZM267.279 40.767C269.284 40.767 271.021 39.8984 272.223 38.295L267.423 34.695C267.385 34.7465 267.36 34.7686 267.354 34.7737C267.349 34.778 267.355 34.7728 267.369 34.7657C267.383 34.7587 267.39 34.7575 267.384 34.7589C267.376 34.7606 267.344 34.767 267.279 34.767V40.767ZM272.223 38.295C273.284 36.8813 273.833 35.0681 274.116 33.1739L268.181 32.2901C267.969 33.7172 267.635 34.4127 267.423 34.695L272.223 38.295ZM274.106 33.2354C274.426 31.3548 274.572 29.1435 274.572 26.637H268.572C268.572 28.9358 268.436 30.7878 268.191 32.2286L274.106 33.2354ZM274.572 26.637C274.572 24.1 274.427 21.8825 274.104 20.028L268.193 21.056C268.436 22.4521 268.572 24.298 268.572 26.637H274.572ZM274.106 20.0386C273.787 18.1633 273.211 16.3613 272.133 14.9831L267.408 18.6809C267.601 18.928 267.945 19.5994 268.191 21.0454L274.106 20.0386ZM272.133 14.9831C270.91 13.4211 269.18 12.613 267.226 12.613V18.613C267.299 18.613 267.34 18.6199 267.357 18.6234C267.372 18.6266 267.371 18.6279 267.361 18.6232C267.351 18.6184 267.346 18.6143 267.349 18.6169C267.353 18.6201 267.374 18.6377 267.408 18.6809L272.133 14.9831ZM267.226 12.613C265.273 12.613 263.542 13.4211 262.32 14.9831L267.045 18.6809C267.079 18.6377 267.099 18.6201 267.103 18.6169C267.106 18.6143 267.102 18.6184 267.092 18.6232C267.082 18.6279 267.081 18.6266 267.096 18.6234C267.112 18.6199 267.153 18.613 267.226 18.613V12.613ZM262.27 15.0488C261.262 16.4117 260.715 18.1858 260.4 20.0386L266.315 21.0454C266.565 19.5768 266.901 18.8777 267.095 18.6152L262.27 15.0488ZM260.391 20.0907C260.113 21.918 259.986 24.1127 259.986 26.637H265.986C265.986 24.2853 266.107 22.4166 266.323 20.9933L260.391 20.0907ZM259.986 26.637C259.986 29.1435 260.133 31.3548 260.453 33.2354L266.368 32.2286C266.123 30.7878 265.986 28.9358 265.986 26.637H259.986ZM260.453 33.2354C260.77 35.0956 261.314 36.8552 262.287 38.2291L267.183 34.7609C266.955 34.4388 266.616 33.6897 266.368 32.2286L260.453 33.2354ZM262.335 38.295C263.538 39.8984 265.275 40.767 267.279 40.767V34.767C267.215 34.767 267.183 34.7606 267.175 34.7589C267.168 34.7575 267.176 34.7587 267.19 34.7657C267.204 34.7728 267.209 34.778 267.204 34.7737C267.198 34.7686 267.174 34.7465 267.135 34.695L262.335 38.295ZM284.698 52.713H281.698V55.713H284.698V52.713ZM284.698 49.48V46.48H281.698V49.48H284.698ZM286.765 49.268L285.992 46.3693L285.992 46.3693L286.765 49.268ZM288.196 48.367L290.4 50.4018L290.4 50.4018L288.196 48.367ZM288.461 17.15L285.675 18.2642L285.707 18.3424L285.742 18.4187L288.461 17.15ZM287.507 16.09L288.661 13.3208L288.661 13.3208L287.507 16.09ZM285.705 15.825H282.705V18.825H285.705V15.825ZM285.705 12.592V9.592H282.705V12.592H285.705ZM296.941 12.592L299.774 11.6064L299.074 9.592H296.941V12.592ZM298.213 16.249L295.379 17.2346L296.08 19.249H298.213V16.249ZM298.425 16.249V19.249H300.098L300.977 17.8255L298.425 16.249ZM301.499 13.281L303.032 15.8596L303.057 15.8445L303.083 15.8289L301.499 13.281ZM314.59 15.666L312.207 17.4883L312.215 17.4993L312.224 17.5102L314.59 15.666ZM314.643 38.191L312.286 36.3344L312.286 36.3344L314.643 38.191ZM302.082 40.947L300.775 43.6475L300.827 43.6725L300.879 43.6955L302.082 40.947ZM299.273 38.668L301.632 36.8145L300.731 35.668H299.273V38.668ZM298.955 38.668V35.668H295.773L295.96 38.8442L298.955 38.668ZM299.061 40.523L296.065 40.6894L296.065 40.6894L299.061 40.523ZM299.114 42.431H296.114V42.5099L296.118 42.5887L299.114 42.431ZM299.803 48.261L302.08 46.3086L302.045 46.2667L302.007 46.2262L299.803 48.261ZM301.234 49.215L302.182 46.369L302.095 46.3399L302.007 46.3163L301.234 49.215ZM304.361 49.48H307.361V46.48H304.361V49.48ZM304.361 52.713V55.713H307.361V52.713H304.361ZM305.421 36.336L307.763 38.2101L307.785 38.1824L307.807 38.1541L305.421 36.336ZM306.64 32.944L303.69 32.3953L303.684 32.4286L303.679 32.462L306.64 32.944ZM306.64 21.39L303.675 21.8511L303.68 21.8832L303.686 21.9151L306.64 21.39ZM305.474 17.733L308.018 16.143L308.018 16.143L305.474 17.733ZM300.757 17.733L298.357 15.933L298.332 15.9656L298.309 15.9989L300.757 17.733ZM299.485 21.39L296.52 20.9289L296.516 20.9567L296.512 20.9847L299.485 21.39ZM299.485 32.944L296.512 33.3493L296.517 33.3878L296.524 33.426L299.485 32.944ZM300.704 36.336L298.317 38.1541L298.366 38.2179L298.418 38.2789L300.704 36.336ZM287.698 52.713V49.48H281.698V52.713H287.698ZM284.698 52.48H285.493V46.48H284.698V52.48ZM285.493 52.48C286.194 52.48 286.909 52.3342 287.538 52.1667L285.992 46.3693C285.795 46.4217 285.652 46.4518 285.556 46.4678C285.454 46.4848 285.44 46.48 285.493 46.48V52.48ZM287.538 52.1667C288.691 51.8592 289.646 51.2191 290.4 50.4018L285.991 46.3322C285.939 46.3888 285.914 46.4028 285.922 46.3981C285.925 46.3959 285.934 46.3908 285.947 46.3848C285.961 46.3788 285.976 46.3734 285.992 46.3693L287.538 52.1667ZM290.4 50.4018C291.531 49.1766 291.832 47.6242 291.832 46.3H285.832C285.832 46.4154 285.825 46.4986 285.818 46.5537C285.81 46.6088 285.803 46.6297 285.805 46.6235C285.807 46.6166 285.819 46.5806 285.85 46.5259C285.881 46.4701 285.927 46.4022 285.991 46.3322L290.4 50.4018ZM291.832 46.3V19.641H285.832V46.3H291.832ZM291.832 19.641C291.832 18.4063 291.715 17.0285 291.179 15.8813L285.742 18.4187C285.703 18.3348 285.736 18.37 285.772 18.6122C285.806 18.8408 285.832 19.1764 285.832 19.641H291.832ZM291.246 16.0358C290.812 14.9502 290.001 13.8792 288.661 13.3208L286.353 18.8592C286.14 18.7704 285.961 18.6366 285.833 18.4944C285.774 18.4283 285.734 18.3702 285.709 18.3291C285.685 18.2885 285.675 18.2645 285.675 18.2642L291.246 16.0358ZM288.661 13.3208C287.777 12.9527 286.85 12.825 285.97 12.825V18.825C286.29 18.825 286.388 18.8739 286.353 18.8592L288.661 13.3208ZM285.97 12.825H285.705V18.825H285.97V12.825ZM288.705 15.825V12.592H282.705V15.825H288.705ZM285.705 15.592H296.941V9.592H285.705V15.592ZM294.107 13.5776L295.379 17.2346L301.046 15.2634L299.774 11.6064L294.107 13.5776ZM298.213 19.249H298.425V13.249H298.213V19.249ZM300.977 17.8255C301.446 17.0668 302.107 16.4094 303.032 15.8596L299.965 10.7024C298.276 11.7072 296.888 13.0286 295.872 14.6725L300.977 17.8255ZM303.083 15.8289C303.781 15.3944 304.864 15.062 306.534 15.062V9.062C304.105 9.062 301.831 9.54225 299.915 10.7331L303.083 15.8289ZM306.534 15.062C309.31 15.062 311.037 15.9584 312.207 17.4883L316.973 13.8436C314.468 10.5682 310.824 9.062 306.534 9.062V15.062ZM312.224 17.5102C313.486 19.1296 314.399 22.0968 314.399 27.008H320.399C320.399 21.6018 319.439 17.0077 316.956 13.8218L312.224 17.5102ZM314.399 27.008C314.399 31.8985 313.498 34.7964 312.286 36.3344L316.999 40.0476C319.462 36.9216 320.399 32.3642 320.399 27.008H314.399ZM312.286 36.3344C311.152 37.7741 309.371 38.689 306.375 38.689V44.689C310.728 44.689 314.459 43.2719 316.999 40.0476L312.286 36.3344ZM306.375 38.689C304.902 38.689 303.915 38.4747 303.284 38.1985L300.879 43.6955C302.509 44.4086 304.385 44.689 306.375 44.689V38.689ZM303.388 38.2465C302.718 37.922 302.137 37.4578 301.632 36.8145L296.914 40.5215C297.963 41.8569 299.255 42.912 300.775 43.6475L303.388 38.2465ZM299.273 35.668H298.955V41.668H299.273V35.668ZM295.96 38.8442C295.995 39.4414 296.03 40.0565 296.065 40.6894L302.056 40.3566C302.021 39.7175 301.985 39.0959 301.95 38.4918L295.96 38.8442ZM296.065 40.6894C296.098 41.2701 296.114 41.8506 296.114 42.431H302.114C302.114 41.7394 302.094 41.0479 302.056 40.3566L296.065 40.6894ZM296.118 42.5887C296.15 43.2049 296.167 43.8413 296.167 44.498H302.167C302.167 43.7414 302.148 42.9998 302.11 42.2733L296.118 42.5887ZM296.167 44.498V46.088H302.167V44.498H296.167ZM296.167 46.088C296.167 47.4116 296.436 49.0363 297.598 50.2958L302.007 46.2262C302.167 46.3999 302.208 46.5395 302.205 46.5306C302.203 46.5249 302.193 46.4881 302.184 46.412C302.174 46.3361 302.167 46.2296 302.167 46.088H296.167ZM297.525 50.2134C298.268 51.08 299.242 51.7887 300.461 52.1137L302.007 46.3163C302.037 46.3245 302.066 46.335 302.091 46.3464C302.116 46.3578 302.133 46.3682 302.143 46.3743C302.161 46.3868 302.138 46.3753 302.08 46.3086L297.525 50.2134ZM300.285 52.061C300.883 52.2604 301.667 52.48 302.453 52.48V46.48C302.535 46.48 302.586 46.4861 302.599 46.4878C302.613 46.4896 302.606 46.4894 302.573 46.4822C302.504 46.4672 302.377 46.434 302.182 46.369L300.285 52.061ZM302.453 52.48H304.361V46.48H302.453V52.48ZM301.361 49.48V52.713H307.361V49.48H301.361ZM304.361 49.713H284.698V55.713H304.361V49.713ZM303.195 40.396C305.009 40.396 306.619 39.6409 307.763 38.2101L303.078 34.4619C303.061 34.4832 303.059 34.4821 303.074 34.4695C303.091 34.4562 303.117 34.4385 303.15 34.4224C303.184 34.4064 303.212 34.3986 303.226 34.3954C303.24 34.3925 303.232 34.396 303.195 34.396V40.396ZM307.807 38.1541C308.805 36.8446 309.32 35.1516 309.601 33.426L303.679 32.462C303.465 33.775 303.167 34.3434 303.034 34.5179L307.807 38.1541ZM309.589 33.4927C309.918 31.726 310.064 29.6003 310.064 27.167H304.064C304.064 29.3977 303.927 31.1233 303.69 32.3953L309.589 33.4927ZM310.064 27.167C310.064 24.7936 309.916 22.6815 309.593 20.8649L303.686 21.9151C303.928 23.2785 304.064 25.0177 304.064 27.167H310.064ZM309.604 20.9289C309.328 19.1533 308.854 17.4812 308.018 16.143L302.93 19.323C303.153 19.6808 303.457 20.4467 303.675 21.8511L309.604 20.9289ZM308.018 16.143C307.025 14.5551 305.423 13.461 303.354 13.461V19.461C303.333 19.461 303.281 19.4582 303.21 19.4392C303.138 19.4199 303.066 19.3894 303.003 19.3515C302.872 19.2729 302.863 19.2162 302.93 19.323L308.018 16.143ZM303.354 13.461C301.351 13.461 299.581 14.3005 298.357 15.933L303.157 19.533C303.191 19.487 303.212 19.4687 303.216 19.4656C303.219 19.4633 303.213 19.468 303.203 19.4732C303.192 19.4783 303.192 19.4765 303.209 19.4727C303.228 19.4687 303.274 19.461 303.354 19.461V13.461ZM298.309 15.9989C297.333 17.3769 296.804 19.1077 296.52 20.9289L302.449 21.8511C302.66 20.4923 302.979 19.7851 303.205 19.4671L298.309 15.9989ZM296.512 20.9847C296.276 22.7145 296.167 24.7305 296.167 27.008H302.167C302.167 24.9042 302.269 23.1748 302.457 21.7953L296.512 20.9847ZM296.167 27.008C296.167 29.4832 296.275 31.6097 296.512 33.3493L302.457 32.5387C302.27 31.169 302.167 29.3382 302.167 27.008H296.167ZM296.524 33.426C296.805 35.1516 297.32 36.8446 298.317 38.1541L303.09 34.5179C302.957 34.3434 302.659 33.775 302.446 32.462L296.524 33.426ZM298.418 38.2789C299.674 39.7563 301.395 40.396 303.195 40.396V34.396C302.999 34.396 302.936 34.364 302.952 34.3705C302.958 34.3732 302.97 34.3795 302.983 34.3891C302.996 34.3984 302.998 34.4025 302.99 34.3931L298.418 38.2789Z" fill="black" fill-opacity="0.15" mask="url(#path-1-outside-1_306_61)"/>
</svg>
