<svg width="331" height="103" viewBox="0 0 331 103" fill="none" xmlns="http://www.w3.org/2000/svg">
<rect y="93" width="331" height="10" fill="#33A8A8"/>
<rect width="331" height="10" fill="#33A8A8"/>
<path d="M24.154 69.53C19.8787 69.53 16.31 68.7173 13.448 67.092C10.586 65.4667 8.43067 63.2053 6.982 60.308C5.56867 57.3753 4.862 53.948 4.862 50.026C4.862 46.21 5.58633 42.8533 7.035 39.956C8.48367 37.0233 10.639 34.7443 13.501 33.119C16.363 31.4583 19.8963 30.628 24.101 30.628C27.0337 30.628 29.454 30.9107 31.362 31.476C33.3053 32.0413 34.754 32.801 35.708 33.755C36.6973 34.709 37.192 35.769 37.192 36.935C37.192 38.3837 36.5207 39.6203 35.178 40.645C33.8707 41.6697 31.839 42.182 29.083 42.182C29.083 40.9807 28.9063 39.797 28.553 38.631C28.235 37.4297 27.6697 36.4403 26.857 35.663C26.0443 34.8503 24.9313 34.444 23.518 34.444C21.61 34.444 20.1083 35.0623 19.013 36.299C17.9177 37.5003 17.1403 39.267 16.681 41.599C16.2217 43.8957 15.992 46.7047 15.992 50.026C15.992 53.5947 16.31 56.4743 16.946 58.665C17.582 60.8203 18.6243 62.375 20.073 63.329C21.557 64.283 23.518 64.76 25.956 64.76C27.864 64.76 29.4717 64.4773 30.779 63.912C32.1217 63.3113 33.2523 62.587 34.171 61.739C35.0897 60.891 35.8493 60.0783 36.45 59.301C36.6973 59.5483 36.8917 59.9193 37.033 60.414C37.1743 60.9087 37.245 61.3503 37.245 61.739C37.245 62.5517 37.0507 63.4173 36.662 64.336C36.3087 65.2193 35.655 66.0673 34.701 66.88C33.747 67.6573 32.4043 68.2933 30.673 68.788C28.977 69.2827 26.804 69.53 24.154 69.53ZM40.5844 69V65.767H41.1674C41.8387 65.767 42.4217 65.661 42.9164 65.449C43.4111 65.2017 43.7997 64.813 44.0824 64.283C44.3651 63.7177 44.5064 62.9757 44.5064 62.057V34.921C44.5064 34.0377 44.2767 33.4017 43.8174 33.013C43.3934 32.589 42.9164 32.3063 42.3864 32.165C41.8564 32.0237 41.4501 31.953 41.1674 31.953H40.5844V28.72H54.8414V62.057C54.8414 62.9757 54.9827 63.7177 55.2654 64.283C55.5481 64.813 55.9367 65.2017 56.4314 65.449C56.9614 65.661 57.5444 65.767 58.1804 65.767H58.7634V69H40.5844ZM76.6675 69.53C72.1095 69.53 68.5231 68.2933 65.9085 65.82C63.2938 63.3467 61.9865 59.619 61.9865 54.637C61.9865 49.655 63.2408 45.945 65.7495 43.507C68.2581 41.0337 71.9505 39.797 76.8265 39.797C81.3845 39.797 84.9708 41.0337 87.5855 43.507C90.2001 45.945 91.5075 49.655 91.5075 54.637C91.5075 59.619 90.2531 63.3467 87.7445 65.82C85.2358 68.2933 81.5435 69.53 76.6675 69.53ZM76.7735 65.767C77.8335 65.767 78.6815 65.343 79.3175 64.495C79.9535 63.647 80.3951 62.3927 80.6425 60.732C80.9251 59.0713 81.0665 57.0397 81.0665 54.637C81.0665 52.199 80.9251 50.1673 80.6425 48.542C80.3598 46.8813 79.9005 45.6447 79.2645 44.832C78.6285 44.0193 77.7805 43.613 76.7205 43.613C75.6605 43.613 74.8125 44.0193 74.1765 44.832C73.5758 45.6447 73.1341 46.8813 72.8515 48.542C72.6041 50.1673 72.4805 52.199 72.4805 54.637C72.4805 57.0397 72.6218 59.0713 72.9045 60.732C73.1871 62.3927 73.6288 63.647 74.2295 64.495C74.8655 65.343 75.7135 65.767 76.7735 65.767ZM107.707 69.53C104.986 69.53 102.813 68.894 101.188 67.622C99.5978 66.35 98.8028 64.1593 98.8028 61.05V44.62H94.8808V41.493C96.4002 41.493 97.6545 41.2103 98.6438 40.645C99.6332 40.0443 100.375 39.4613 100.87 38.896C101.365 38.4013 101.824 37.73 102.248 36.882C102.707 36.034 103.061 35.0623 103.308 33.967H109.138V40.592H115.816V44.62H109.138V59.99C109.138 61.4033 109.332 62.4457 109.721 63.117C110.145 63.7883 110.993 64.124 112.265 64.124C112.972 64.124 113.678 64.071 114.385 63.965C115.092 63.859 115.728 63.7353 116.293 63.594V67.834C115.657 68.152 114.615 68.523 113.166 68.947C111.717 69.3357 109.898 69.53 107.707 69.53ZM118.378 69V65.767H118.59C119.296 65.767 119.915 65.6963 120.445 65.555C121.01 65.3783 121.452 65.0427 121.77 64.548C122.088 64.018 122.247 63.2407 122.247 62.216V34.921C122.247 34.0377 122.017 33.4017 121.558 33.013C121.134 32.589 120.657 32.3063 120.127 32.165C119.597 32.0237 119.19 31.953 118.908 31.953H118.113V28.72H132.582V36.034C132.582 36.988 132.564 37.942 132.529 38.896C132.529 39.8147 132.511 40.6803 132.476 41.493C132.44 42.3057 132.387 43.03 132.317 43.666H132.741C133.165 42.9947 133.695 42.3763 134.331 41.811C134.967 41.2103 135.797 40.7333 136.822 40.38C137.846 39.9913 139.118 39.797 140.638 39.797C143.57 39.797 145.726 40.592 147.104 42.182C148.517 43.772 149.224 46.3513 149.224 49.92V62.057C149.224 63.117 149.312 63.912 149.489 64.442C149.701 64.972 150.036 65.3253 150.496 65.502C150.955 65.6787 151.573 65.767 152.351 65.767H152.563V69H138.889V52.199C138.889 49.9377 138.659 48.1887 138.2 46.952C137.776 45.7153 136.998 45.097 135.868 45.097C134.914 45.097 134.207 45.5033 133.748 46.316C133.288 47.1287 132.988 48.1533 132.847 49.39C132.705 50.5913 132.635 51.8103 132.635 53.047V62.375C132.635 63.329 132.741 64.0533 132.953 64.548C133.2 65.0073 133.553 65.3253 134.013 65.502C134.507 65.6787 135.143 65.767 135.921 65.767H136.133V69H118.378ZM170.869 69.53C165.852 69.53 162.124 68.258 159.686 65.714C157.284 63.1347 156.082 59.5307 156.082 54.902C156.082 49.92 157.319 46.157 159.792 43.613C162.266 41.069 165.746 39.797 170.233 39.797C174.403 39.797 177.671 40.8923 180.038 43.083C182.441 45.2383 183.642 48.4183 183.642 52.623V55.538H166.47C166.541 57.7287 166.841 59.5307 167.371 60.944C167.901 62.3573 168.679 63.3997 169.703 64.071C170.728 64.7423 172 65.078 173.519 65.078C174.721 65.078 175.745 64.866 176.593 64.442C177.477 64.018 178.219 63.435 178.819 62.693C179.42 61.951 179.915 61.1207 180.303 60.202C180.975 60.3787 181.522 60.6967 181.946 61.156C182.406 61.6153 182.635 62.1983 182.635 62.905C182.635 63.965 182.247 65.0073 181.469 66.032C180.692 67.0567 179.438 67.9047 177.706 68.576C176.01 69.212 173.731 69.53 170.869 69.53ZM173.519 51.775C173.519 50.0083 173.413 48.5243 173.201 47.323C172.989 46.1217 172.654 45.2207 172.194 44.62C171.77 43.984 171.205 43.666 170.498 43.666C169.756 43.666 169.085 43.984 168.484 44.62C167.884 45.2207 167.407 46.1217 167.053 47.323C166.735 48.5243 166.576 50.0083 166.576 51.775H173.519ZM200.637 69.53C197.775 69.53 195.443 69.2827 193.641 68.788C191.839 68.2933 190.443 67.6573 189.454 66.88C188.465 66.1027 187.776 65.29 187.387 64.442C187.034 63.594 186.857 62.8343 186.857 62.163C186.857 60.573 187.193 59.354 187.864 58.506C188.571 57.658 189.454 57.075 190.514 56.757C191.574 56.4037 192.705 56.227 193.906 56.227C193.906 58.6297 194.295 60.5377 195.072 61.951C195.885 63.3643 196.892 64.389 198.093 65.025C199.33 65.6257 200.566 65.926 201.803 65.926C203.676 65.926 205.107 65.396 206.096 64.336C207.121 63.2407 207.633 62.0923 207.633 60.891C207.633 59.7603 207.244 58.7887 206.467 57.976C205.725 57.1633 204.647 56.4037 203.234 55.697C201.856 54.9903 200.213 54.2483 198.305 53.471C196.291 52.6583 194.613 51.8103 193.27 50.927C191.963 50.0083 190.92 49.0543 190.143 48.065C189.366 47.0757 188.818 46.0333 188.5 44.938C188.182 43.8427 188.023 42.712 188.023 41.546C188.023 39.2847 188.641 37.3413 189.878 35.716C191.15 34.0907 192.864 32.8363 195.019 31.953C197.174 31.0697 199.595 30.628 202.28 30.628C205.142 30.628 207.474 30.9637 209.276 31.635C211.113 32.3063 212.456 33.1543 213.304 34.179C214.152 35.1683 214.576 36.2107 214.576 37.306C214.576 38.6133 213.993 39.7263 212.827 40.645C211.696 41.5637 209.718 42.023 206.891 42.023C206.891 40.8217 206.661 39.638 206.202 38.472C205.743 37.2707 205.071 36.2813 204.188 35.504C203.34 34.6913 202.28 34.285 201.008 34.285C200.16 34.285 199.383 34.4263 198.676 34.709C197.969 34.9917 197.404 35.4333 196.98 36.034C196.556 36.5993 196.344 37.359 196.344 38.313C196.344 39.0197 196.574 39.744 197.033 40.486C197.492 41.228 198.393 42.0407 199.736 42.924C201.114 43.772 203.11 44.726 205.725 45.786C208.41 46.846 210.495 47.9943 211.979 49.231C213.498 50.4323 214.558 51.7397 215.159 53.153C215.76 54.531 216.06 56.068 216.06 57.764C216.06 60.0607 215.424 62.0923 214.152 63.859C212.915 65.6257 211.131 67.0213 208.799 68.046C206.502 69.0353 203.782 69.53 200.637 69.53ZM218.788 69V65.767H219C219.706 65.767 220.325 65.6963 220.855 65.555C221.42 65.3783 221.862 65.0427 222.18 64.548C222.498 64.018 222.657 63.2407 222.657 62.216V34.921C222.657 34.0377 222.427 33.4017 221.968 33.013C221.544 32.589 221.067 32.3063 220.537 32.165C220.007 32.0237 219.6 31.953 219.318 31.953H218.523V28.72H232.992V36.034C232.992 36.988 232.974 37.942 232.939 38.896C232.939 39.8147 232.921 40.6803 232.886 41.493C232.85 42.3057 232.797 43.03 232.727 43.666H233.151C233.575 42.9947 234.105 42.3763 234.741 41.811C235.377 41.2103 236.207 40.7333 237.232 40.38C238.256 39.9913 239.528 39.797 241.048 39.797C243.98 39.797 246.136 40.592 247.514 42.182C248.927 43.772 249.634 46.3513 249.634 49.92V62.057C249.634 63.117 249.722 63.912 249.899 64.442C250.111 64.972 250.446 65.3253 250.906 65.502C251.365 65.6787 251.983 65.767 252.761 65.767H252.973V69H239.299V52.199C239.299 49.9377 239.069 48.1887 238.61 46.952C238.186 45.7153 237.408 45.097 236.278 45.097C235.324 45.097 234.617 45.5033 234.158 46.316C233.698 47.1287 233.398 48.1533 233.257 49.39C233.115 50.5913 233.045 51.8103 233.045 53.047V62.375C233.045 63.329 233.151 64.0533 233.363 64.548C233.61 65.0073 233.963 65.3253 234.423 65.502C234.917 65.6787 235.553 65.767 236.331 65.767H236.543V69H218.788ZM271.173 69.53C266.615 69.53 263.029 68.2933 260.414 65.82C257.8 63.3467 256.492 59.619 256.492 54.637C256.492 49.655 257.747 45.945 260.255 43.507C262.764 41.0337 266.456 39.797 271.332 39.797C275.89 39.797 279.477 41.0337 282.091 43.507C284.706 45.945 286.013 49.655 286.013 54.637C286.013 59.619 284.759 63.3467 282.25 65.82C279.742 68.2933 276.049 69.53 271.173 69.53ZM271.279 65.767C272.339 65.767 273.187 65.343 273.823 64.495C274.459 63.647 274.901 62.3927 275.148 60.732C275.431 59.0713 275.572 57.0397 275.572 54.637C275.572 52.199 275.431 50.1673 275.148 48.542C274.866 46.8813 274.406 45.6447 273.77 44.832C273.134 44.0193 272.286 43.613 271.226 43.613C270.166 43.613 269.318 44.0193 268.682 44.832C268.082 45.6447 267.64 46.8813 267.357 48.542C267.11 50.1673 266.986 52.199 266.986 54.637C266.986 57.0397 267.128 59.0713 267.41 60.732C267.693 62.3927 268.135 63.647 268.735 64.495C269.371 65.343 270.219 65.767 271.279 65.767ZM288.698 80.713V77.48H289.493C289.811 77.48 290.235 77.4093 290.765 77.268C291.295 77.1267 291.772 76.8263 292.196 76.367C292.62 75.9077 292.832 75.2187 292.832 74.3V47.641C292.832 46.5103 292.708 45.68 292.461 45.15C292.249 44.62 291.931 44.2667 291.507 44.09C291.083 43.9133 290.57 43.825 289.97 43.825H289.705V40.592H300.941L302.213 44.249H302.425C303.167 43.0477 304.191 42.0583 305.499 41.281C306.806 40.4683 308.484 40.062 310.534 40.062C314.067 40.062 316.752 41.2633 318.59 43.666C320.462 46.0687 321.399 49.8493 321.399 55.008C321.399 60.1313 320.48 63.859 318.643 66.191C316.805 68.523 314.049 69.689 310.375 69.689C308.643 69.689 307.212 69.4417 306.082 68.947C304.986 68.417 304.05 67.6573 303.273 66.668H302.955C302.99 67.2687 303.025 67.887 303.061 68.523C303.096 69.159 303.114 69.795 303.114 70.431C303.149 71.1023 303.167 71.7913 303.167 72.498V74.088C303.167 75.0773 303.379 75.8017 303.803 76.261C304.227 76.7557 304.704 77.0737 305.234 77.215C305.764 77.3917 306.17 77.48 306.453 77.48H308.361V80.713H288.698ZM307.195 65.396C308.113 65.396 308.855 65.0427 309.421 64.336C309.986 63.594 310.392 62.4633 310.64 60.944C310.922 59.4247 311.064 57.499 311.064 55.167C311.064 52.9057 310.922 50.98 310.64 49.39C310.392 47.8 310.004 46.581 309.474 45.733C308.944 44.885 308.237 44.461 307.354 44.461C306.258 44.461 305.393 44.885 304.757 45.733C304.156 46.581 303.732 47.8 303.485 49.39C303.273 50.9447 303.167 52.8173 303.167 55.008C303.167 57.4107 303.273 59.3893 303.485 60.944C303.732 62.4633 304.138 63.594 304.704 64.336C305.304 65.0427 306.135 65.396 307.195 65.396Z" fill="white"/>
</svg>
